<svg version="1.1" id="Layer_1" xmlns="http://www.w3.org/2000/svg" xmlns:xlink="http://www.w3.org/1999/xlink" x="0px" y="0px"
	 width="100%" viewBox="0 0 1371 411" enable-background="new 0 0 1371 411" xml:space="preserve">
<path fill="#FFFFFF" opacity="1.000000" stroke="none" 
	d="
M888.000000,412.000000 
	C592.000000,412.000000 296.500031,412.000000 1.000040,412.000000 
	C1.000026,275.000031 1.000026,138.000046 1.000013,1.000058 
	C457.999969,1.000039 914.999939,1.000039 1372.000000,1.000019 
	C1372.000000,137.999939 1372.000000,274.999878 1372.000000,411.999908 
	C1210.833374,412.000000 1049.666626,412.000000 888.000000,412.000000 
M142.696442,93.711250 
	C142.823441,93.833176 142.950424,93.955093 142.995773,94.791809 
	C138.053604,100.431137 136.928818,107.172401 136.961273,114.409019 
	C137.065170,137.571320 136.999863,160.734375 136.999863,183.897141 
	C136.999863,224.890244 136.994522,265.883331 137.006439,306.876434 
	C137.007980,312.187622 139.939331,315.965515 143.969955,315.987732 
	C148.097488,316.010468 149.999847,313.226654 149.999908,307.157043 
	C150.000336,264.164276 150.104813,221.171036 149.903732,178.179214 
	C149.867508,170.431595 151.625519,163.260590 154.433548,156.264450 
	C155.385056,153.893814 157.388870,151.945557 158.911819,149.804276 
	C157.715942,154.873428 154.775650,159.142685 154.229126,163.699081 
	C153.129288,172.868317 153.067230,182.193344 153.045334,191.455200 
	C152.942917,234.780991 152.982452,278.107208 153.060104,321.433075 
	C153.063385,323.268982 153.377167,325.903381 154.559387,326.748260 
	C156.274399,327.973907 159.019806,328.572571 161.133850,328.235413 
	C164.362900,327.720459 165.065994,325.032715 165.060318,321.819641 
	C164.973770,272.828033 165.067764,223.836075 164.956635,174.844574 
	C164.925522,161.129257 176.898926,147.198303 192.110596,149.036514 
	C202.754166,150.322708 213.017090,159.067368 213.830856,169.813126 
	C214.608841,180.085800 214.061386,190.464417 213.924744,200.794189 
	C213.906494,202.174637 212.880173,203.541748 212.320663,204.915024 
	C211.880493,204.778900 211.440308,204.642776 211.000137,204.506653 
	C211.000137,193.351517 211.016556,182.196350 210.982086,171.041336 
	C210.977020,169.401581 210.932022,167.715530 210.562195,166.131027 
	C208.430832,156.999268 195.720917,148.561462 182.950012,152.358047 
	C174.184280,154.963974 168.042679,164.028320 168.034882,169.900879 
	C167.972977,216.559616 167.968475,263.218597 168.128098,309.876862 
	C168.133896,311.569214 169.619080,314.014496 171.107483,314.805542 
	C176.101730,317.459808 179.991501,314.695831 179.993210,308.837433 
	C180.005981,265.178101 180.000031,221.518799 180.000595,177.859482 
	C180.000610,176.526413 179.778915,175.145004 180.048981,173.868286 
	C181.561005,166.720673 185.111191,163.589294 189.508392,163.921463 
	C194.168945,164.273514 198.724655,167.352356 198.912918,171.683624 
	C199.452713,184.103317 199.803482,196.536865 199.860718,208.966675 
	C199.870987,211.198975 198.128159,213.439331 197.194748,215.675980 
	C195.999802,203.470123 196.170578,191.803101 195.837250,180.150497 
	C195.779465,178.130356 194.021179,175.361969 192.257431,174.419876 
	C190.614410,173.542252 187.171738,173.846939 185.875763,175.068344 
	C184.308548,176.545380 183.838074,179.488602 183.506683,181.882278 
	C183.222336,183.936020 183.973053,186.109238 183.974670,188.229858 
	C184.008087,232.222443 183.999847,276.215027 184.000000,320.207642 
	C184.000000,321.374115 183.574554,322.799194 184.091492,323.653503 
	C185.186737,325.463470 186.491211,327.589752 188.255203,328.401978 
	C189.505188,328.977539 192.437210,328.149597 193.223251,326.996857 
	C194.686081,324.851562 195.864120,322.018585 195.885696,319.461090 
	C196.081070,296.299957 196.043671,273.136414 195.975403,249.973831 
	C195.952957,242.354126 199.069275,235.765991 202.451279,229.278549 
	C203.018494,228.190475 204.800186,227.735519 205.988617,227.715912 
	C201.064377,235.313156 198.591263,243.372147 198.846359,252.690445 
	C199.361420,271.503754 199.068100,290.341461 198.948013,309.168091 
	C198.920746,313.442169 200.557495,315.273651 204.839233,315.031403 
	C209.088852,314.791016 210.988876,312.776703 210.993118,307.925537 
	C211.010147,288.431702 210.897888,268.936768 211.102554,249.445068 
	C211.136032,246.257324 212.522919,243.083771 213.284286,239.903656 
	C213.841660,240.046143 214.399017,240.188644 214.956390,240.331131 
	C214.637558,242.876984 214.048935,245.422089 214.041733,247.968842 
	C213.972015,272.627502 214.043350,297.286621 213.954742,321.945190 
	C213.940857,325.811279 215.240692,328.513397 219.187866,328.906647 
	C222.472488,329.233887 225.975601,325.415222 225.981262,321.875458 
	C226.019180,298.197662 226.054352,274.519592 225.972961,250.842010 
	C225.950989,244.449142 233.384323,239.611862 239.046280,242.505524 
	C243.574127,244.819565 245.012161,248.704010 245.008209,253.469193 
	C244.989441,276.128693 245.113220,298.789246 244.904602,321.446838 
	C244.862640,326.004578 246.652206,328.411926 250.828140,328.916687 
	C254.674454,329.381622 256.996704,326.290680 256.997772,321.308716 
	C257.002869,297.982758 256.470856,274.640350 257.194122,251.336838 
	C257.643890,236.846573 242.834579,224.885208 227.723221,230.097122 
	C226.421921,230.545929 225.014221,230.686264 223.655945,230.969894 
	C234.054367,223.219620 241.068054,225.560776 251.109650,232.805222 
	C257.618683,237.501129 259.843689,244.979767 259.932037,252.738617 
	C260.142670,271.230377 259.996979,289.726166 260.001862,308.220337 
	C260.003204,313.204315 262.307190,316.129333 266.090363,315.989044 
	C269.008453,315.880829 271.989899,311.952576 271.993317,308.098358 
	C272.008759,290.603882 272.063263,273.109009 271.954712,255.615204 
	C271.928253,251.355560 271.739044,247.022293 270.938843,242.854538 
	C266.670166,220.621490 243.321121,208.693863 223.122406,216.199097 
	C216.902725,218.510132 211.635666,223.385040 205.351379,226.475815 
	C207.569168,224.146317 209.552109,221.519989 212.049561,219.543945 
	C219.037842,214.014618 227.399918,210.454803 236.021729,211.249313 
	C260.344849,213.490631 275.009125,231.173401 275.001526,254.223999 
	C274.994232,276.223236 275.060486,298.222809 274.948120,320.221466 
	C274.926025,324.542877 276.655334,326.277832 280.895386,326.029907 
	C285.215179,325.777374 286.996918,323.686462 286.997345,318.366241 
	C287.001770,264.201416 287.000061,210.036606 286.999939,155.871796 
	C286.999908,155.038498 287.094391,154.191803 286.980804,153.374161 
	C286.429382,149.404694 284.023071,147.920944 280.131317,147.950867 
	C276.218079,147.980972 274.894104,149.875000 274.967621,153.540878 
	C275.087860,159.538254 274.999969,165.539810 274.999939,171.539597 
	C274.999908,186.433517 274.999939,201.327438 274.999939,216.221359 
	C272.988251,214.211517 271.158875,211.935349 271.133789,209.639465 
	C270.909698,189.142624 270.931702,168.641846 271.062195,148.143372 
	C271.089966,143.778763 275.640533,138.442947 279.002930,138.004913 
	C283.750488,137.386429 288.629028,140.240173 289.787750,144.716629 
	C290.518524,147.539810 290.947174,150.526138 290.950989,153.440002 
	C291.018555,205.104813 291.023895,256.769775 290.954010,308.434601 
	C290.948456,312.522125 291.677032,315.139404 296.607758,315.082245 
	C301.223572,315.028748 302.046326,312.637238 302.041962,308.720947 
	C301.980286,253.556244 302.015259,198.391418 301.940247,143.226730 
	C301.937469,141.180557 301.573303,138.794754 300.491455,137.150085 
	C296.217041,130.651978 291.077637,126.316910 282.287933,125.718285 
	C268.470947,124.777275 258.280731,135.654068 258.824615,149.554245 
	C259.538940,167.810989 258.999939,186.116760 258.999939,204.401459 
	C258.526123,204.510742 258.052307,204.620041 257.578491,204.729324 
	C257.052368,202.764236 256.085052,200.802582 256.069763,198.833542 
	C255.945801,182.835052 255.947220,166.834854 256.045929,150.836014 
	C256.064972,147.747650 256.207886,144.519302 257.100830,141.602661 
	C260.171631,131.572510 267.706177,124.390587 278.167572,123.067017 
	C287.934448,121.831306 298.132416,127.218956 301.869049,136.321777 
	C304.166443,141.918549 305.787262,148.239105 305.825592,154.246704 
	C306.136230,202.909729 305.999908,251.575592 305.999939,300.240601 
	C305.999939,307.073700 306.074280,313.907928 305.971344,320.739471 
	C305.913513,324.576294 307.656281,325.973724 311.410248,326.071289 
	C316.360260,326.199921 317.049622,323.487366 317.045013,319.415649 
	C316.979126,261.251068 316.833099,203.085617 317.086761,144.922043 
	C317.180878,123.347237 295.022247,105.640556 271.534088,111.950378 
	C266.491852,113.304916 261.747131,115.766991 256.865356,117.718872 
	C256.516052,117.340248 256.166748,116.961617 255.817444,116.582985 
	C256.823944,116.068016 257.878143,115.628372 258.829529,115.026291 
	C267.689026,109.419571 276.941193,106.792793 287.675690,108.862701 
	C306.199493,112.434593 319.983093,129.030533 319.991364,147.296432 
	C320.015533,200.627945 319.998291,253.959473 320.002411,307.290985 
	C320.002869,312.906738 321.810425,314.853241 326.529419,315.041931 
	C332.048737,315.262573 332.034424,311.751892 332.029388,307.797028 
	C331.980591,269.465057 332.000061,231.132996 332.000061,192.800964 
	C332.000061,191.066589 332.000061,189.332214 332.000061,187.597855 
	C332.593689,187.486252 333.187286,187.374664 333.780914,187.263062 
	C334.520569,190.030960 335.894531,192.796585 335.904449,195.567078 
	C336.044830,234.731903 335.999878,273.897400 336.000092,313.062744 
	C336.000092,315.895966 335.494110,318.861389 336.184448,321.515320 
	C336.633850,323.242950 338.641510,325.517609 340.269135,325.816772 
	C346.380707,326.940002 347.997345,325.291077 347.997925,319.089905 
	C348.001984,276.757996 347.983734,234.426102 348.019379,192.094238 
	C348.024200,186.371201 346.297424,181.368927 341.996674,177.594833 
	C338.989197,174.955673 335.562775,172.793900 331.807892,170.040909 
	C333.183533,170.167343 334.009003,170.097687 334.736511,170.332138 
	C344.179657,173.375046 350.991516,183.619675 350.995178,194.814575 
	C351.007599,232.813278 351.043427,270.812103 350.941345,308.810547 
	C350.929474,313.231689 352.366821,315.353607 356.984711,315.030304 
	C361.645905,314.703949 363.039093,312.063751 363.032867,307.777222 
	C362.976776,269.111969 362.952057,230.446487 363.024200,191.781281 
	C363.052246,176.747894 351.559845,160.358276 334.535980,156.924500 
	C333.552063,156.726028 332.722992,155.759888 331.821838,155.151001 
	C332.111237,154.596497 332.400665,154.041992 332.690063,153.487488 
	C337.623566,155.660294 342.929688,157.249649 347.419525,160.117126 
	C360.045227,168.180649 365.816376,180.467148 365.907440,195.058014 
	C366.169464,237.054947 365.979218,279.054596 366.064178,321.053009 
	C366.068176,323.042694 366.391479,325.814178 367.669434,326.820770 
	C369.266144,328.078400 372.106171,328.508026 374.231445,328.171387 
	C377.572327,327.642212 378.055756,324.829834 378.050232,321.696777 
	C377.975464,279.365021 377.975983,237.033081 378.015442,194.701233 
	C378.026550,182.764252 375.225891,171.668793 367.966461,162.082794 
	C359.757538,151.243011 349.250916,143.895660 335.424408,141.879791 
	C334.159546,141.695389 332.481201,140.066559 332.100250,138.780930 
	C329.211700,129.032806 326.015259,119.644295 318.658264,111.991318 
	C309.915070,102.896370 299.279785,97.907555 286.000916,95.485733 
	C286.000916,82.558510 286.797729,69.745590 285.768250,57.081131 
	C284.812042,45.318195 278.773590,35.239933 269.841064,27.525782 
	C259.159332,18.301052 246.653687,14.041611 232.252274,14.900467 
	C213.239380,16.034338 199.167511,24.956160 190.166046,41.263664 
	C186.432846,48.026917 184.883560,55.995655 182.288284,63.570370 
	C182.344345,63.592667 181.453552,63.242058 180.565491,62.884655 
	C168.904739,58.191647 157.090942,57.160610 144.810837,60.531498 
	C131.697342,64.131149 121.749222,71.473145 114.890121,83.260674 
	C110.790756,90.305527 107.977592,97.599052 107.992424,105.847313 
	C108.018799,120.513435 107.803131,135.183884 108.120911,149.843170 
	C108.214966,154.181885 106.818985,155.960129 102.729904,156.754227 
	C99.291374,157.421967 95.996124,158.848846 92.654060,159.988388 
	C75.243813,165.924835 61.794830,187.038437 61.991940,205.246155 
	C62.043995,210.054459 61.999802,214.863785 61.999802,219.933411 
	C48.294468,221.787506 37.133823,227.676102 28.362114,238.074722 
	C21.965576,245.657684 17.628145,254.344284 17.184761,264.085876 
	C16.488337,279.386963 17.057047,294.743439 16.959251,310.075623 
	C16.935087,313.864288 17.985231,316.003754 22.247000,316.069763 
	C26.595385,316.137085 28.129002,314.285828 28.051140,310.078766 
	C27.884638,301.082153 27.618244,292.059143 28.115660,283.087036 
	C28.548326,275.282776 29.166973,267.322235 31.134695,259.805389 
	C34.906380,245.397354 45.444458,237.323074 59.241413,233.102005 
	C60.023621,232.862717 61.067791,233.479660 63.080502,233.956345 
	C58.709633,235.611572 55.553986,236.852203 52.366642,238.005234 
	C41.869457,241.802582 32.021626,255.531845 32.006748,266.538391 
	C31.981522,285.204376 32.067692,303.870880 31.947598,322.536133 
	C31.920734,326.711517 32.862637,329.158600 37.709946,329.080536 
	C42.391212,329.005066 43.068359,326.456940 43.041004,322.618866 
	C42.938847,308.286743 43.187378,293.950012 42.921581,279.622101 
	C42.787788,272.410004 43.620090,265.440369 47.132614,259.205383 
	C50.291050,253.598969 55.457222,250.100967 61.880070,248.737961 
	C60.556438,250.332809 58.827679,251.317612 57.159325,252.395859 
	C51.095150,256.315125 46.688919,260.983490 46.901436,269.075867 
	C47.260082,282.732635 47.062595,296.406158 46.959183,310.071564 
	C46.930531,313.857727 47.978668,316.003052 52.242992,316.069611 
	C56.588287,316.137360 58.110516,314.292175 58.051823,310.082977 
	C57.898468,299.085480 57.797890,288.078766 58.107944,277.087891 
	C58.219322,273.139679 59.564922,269.226318 60.347244,265.297058 
	C60.898106,265.407257 61.448971,265.517456 61.999832,265.627686 
	C61.999832,284.408173 61.987667,303.188629 62.007847,321.969116 
	C62.013321,327.063507 63.979202,328.914459 68.708138,329.042114 
	C73.883797,329.181885 74.035194,325.945312 74.030258,322.118835 
	C73.980766,283.786865 73.945534,245.454620 74.083878,207.123093 
	C74.097862,203.247314 75.276489,199.375732 75.914642,195.502213 
	C76.276367,195.562668 76.638100,195.623123 76.999825,195.683578 
	C76.999825,233.011734 76.999786,270.339905 77.000008,307.668060 
	C77.000015,309.001343 76.511269,310.643219 77.112175,311.599884 
	C78.171097,313.285645 79.727562,315.539581 81.371841,315.820160 
	C87.550117,316.874390 88.997749,315.337006 88.998444,308.984406 
	C89.002136,275.152222 88.997398,241.320053 89.002220,207.487869 
	C89.003410,199.146729 92.982857,192.680878 99.122711,187.579971 
	C101.287552,185.781433 104.411629,185.137497 107.097755,183.966400 
	C107.308594,184.514343 107.519440,185.062286 107.730286,185.610245 
	C106.632538,186.075333 105.540710,186.554977 104.436096,187.003143 
	C97.213974,189.933289 91.999962,197.596741 91.999924,205.295868 
	C91.999733,244.461197 92.089897,283.626953 91.906265,322.791443 
	C91.877525,328.920013 95.075066,329.664581 99.444550,328.873291 
	C103.012253,328.227234 104.069344,325.434174 104.059845,321.795959 
	C103.962479,284.464142 104.002380,247.131973 103.996628,209.799911 
	C103.996071,206.219070 104.001305,202.661255 107.999802,200.175644 
	C107.999802,201.804901 107.999794,202.949982 107.999794,204.095062 
	C107.999802,238.927200 108.011040,273.759338 107.979698,308.591461 
	C107.977036,311.553375 107.919624,314.445679 111.766373,314.969421 
	C115.578156,315.488342 118.955414,314.837555 119.314140,310.167786 
	C119.545815,307.151947 119.003990,304.085632 119.018456,301.042908 
	C119.327843,235.947021 119.639328,170.851120 120.039444,105.755775 
	C120.083405,98.604935 123.784111,92.696320 127.602219,86.970398 
	C128.197571,86.077560 129.415649,85.599991 130.345779,84.930405 
	C130.756149,86.140175 130.626831,86.771172 130.257095,87.189888 
	C125.022697,93.117813 122.960030,100.067261 122.966377,107.910339 
	C123.023590,178.574554 122.999794,249.238815 122.999977,319.903076 
	C122.999985,321.236359 122.883858,322.582397 123.025635,323.900574 
	C123.471588,328.046906 127.135170,329.791656 130.905609,328.069580 
	C134.256561,326.539124 134.016464,323.844055 134.015640,320.985352 
	C133.995728,252.321030 133.946320,183.656601 134.071884,114.992500 
	C134.086700,106.894241 135.470795,98.946205 142.696442,93.711250 
M408.002502,169.430252 
	C411.506866,182.961533 415.048431,196.483307 418.507111,210.026260 
	C424.185669,232.261307 429.810394,254.510101 435.520477,276.999908 
	C441.292053,276.999908 447.114624,276.822662 452.918579,277.074554 
	C455.831268,277.200958 456.428619,275.579071 457.009979,273.422760 
	C459.851288,262.885040 462.772644,252.368866 465.600159,241.827515 
	C471.422821,220.119736 477.226746,198.406876 482.982971,176.681427 
	C484.159180,172.242096 485.091919,167.738235 486.329041,162.441528 
	C495.498932,201.322708 504.413971,239.123322 513.346985,276.999969 
	C519.322998,276.999969 524.985046,276.832092 530.629700,277.072937 
	C533.330994,277.188141 534.353821,276.039734 535.013306,273.723511 
	C537.956543,263.386566 541.058472,253.094513 543.970642,242.749008 
	C552.056641,214.024414 560.060364,185.276688 568.134460,156.548737 
	C570.114563,149.503479 572.239563,142.498917 574.391663,135.155930 
	C567.234375,135.155930 560.775818,135.155930 554.083069,135.155930 
	C544.273621,173.441711 534.487000,211.638565 524.758728,249.607407 
	C515.836426,211.513367 506.894867,173.337250 497.958679,135.183990 
	C490.758972,135.183990 483.967041,135.183990 477.066803,135.183990 
	C466.944031,174.044830 456.859283,212.759674 446.890106,251.030914 
	C446.919037,251.080780 446.212555,250.345749 446.047272,249.504410 
	C444.304901,240.635513 442.945953,231.681061 440.914337,222.881088 
	C434.401215,194.669388 427.679871,166.505402 420.885956,138.359924 
	C420.571594,137.057495 418.828094,135.218475 417.663116,135.151855 
	C411.876038,134.820892 406.059753,135.000824 399.487396,135.000824 
	C402.411407,146.536621 405.204468,157.555695 408.002502,169.430252 
M956.951111,274.398804 
	C967.405945,241.443954 977.860718,208.489090 988.485046,175.000000 
	C984.964172,175.000000 982.155334,175.000000 979.346497,175.000000 
	C969.287109,175.000000 969.016968,174.923172 966.340149,184.337234 
	C960.721924,204.095810 955.397339,223.938126 950.000671,243.759247 
	C948.916626,247.740753 948.048157,251.780945 947.077026,255.807449 
	C938.837524,228.581253 930.727905,201.784286 922.668335,175.152740 
	C916.574402,175.152740 910.932434,175.152740 905.253296,175.152740 
	C896.803284,202.317413 888.393127,229.353882 880.110840,255.979416 
	C880.066956,255.911789 879.409668,255.298767 879.234558,254.569885 
	C876.452881,242.993958 873.872559,231.367996 870.962830,219.824890 
	C867.469055,205.964523 863.563843,192.206650 860.179260,178.320923 
	C859.487854,175.484360 858.326233,174.925919 855.854309,174.969742 
	C850.363953,175.067032 844.870667,175.000061 839.204041,175.000061 
	C840.685913,180.162308 842.057129,185.127670 843.536377,190.060623 
	C851.088440,215.244522 858.696655,240.411636 866.226013,265.602295 
	C869.627319,276.981750 869.564941,277.000397 881.816589,277.000031 
	C882.816345,277.000000 883.820129,276.942627 884.815125,277.011322 
	C887.244324,277.179016 888.319336,276.497040 889.199524,273.745697 
	C895.254395,254.819580 901.779907,236.044708 907.967285,217.159973 
	C910.001343,210.951691 911.482544,204.562271 913.067627,198.797287 
	C921.092896,224.669510 929.196777,250.795059 937.325195,276.999908 
	C942.771667,276.999908 947.931946,277.112061 953.080139,276.912323 
	C954.211121,276.868439 955.299072,275.715790 956.951111,274.398804 
M787.991821,278.978882 
	C788.892029,278.653473 789.770630,278.238525 790.695496,278.015808 
	C808.440796,273.742065 820.411072,262.998596 826.610962,245.865616 
	C829.825256,236.983109 829.329407,227.685837 828.916321,218.525375 
	C828.210083,202.861908 821.459412,190.236069 808.650024,180.954880 
	C798.600403,173.673401 787.245056,172.346008 775.258850,172.942856 
	C759.331970,173.735916 746.777222,180.353989 737.853149,193.590652 
	C727.478394,208.978989 727.070801,225.918335 730.742798,243.280167 
	C734.296387,260.081879 744.910217,271.447968 760.793823,276.576813 
	C768.963562,279.214874 778.278870,278.305176 787.991821,278.978882 
M1292.743896,258.976715 
	C1282.655151,252.146347 1279.166016,241.930725 1278.117554,229.969116 
	C1301.987305,229.969116 1325.862915,229.969116 1350.471680,229.969116 
	C1349.958618,221.919586 1350.106201,214.290054 1348.855713,206.897064 
	C1346.872314,195.171066 1341.259155,185.273819 1331.040039,178.562744 
	C1322.416382,172.899506 1312.682617,172.644257 1302.805054,172.969437 
	C1289.482178,173.408081 1278.997192,179.643875 1271.176636,189.739243 
	C1259.097412,205.332062 1257.713989,223.639175 1261.159424,242.199371 
	C1264.459839,259.979095 1275.122559,272.362793 1292.949341,276.787201 
	C1301.079102,278.804932 1309.871338,279.208313 1318.279053,278.761902 
	C1327.144409,278.291168 1335.909668,275.934021 1344.906250,274.368347 
	C1343.554565,268.314789 1342.522705,263.693634 1341.407959,258.701477 
	C1339.418335,259.416229 1337.506470,260.261505 1335.511230,260.794373 
	C1321.334717,264.580780 1307.198486,266.939789 1292.743896,258.976715 
M1179.617676,230.000000 
	C1201.365479,230.000000 1223.113281,230.000000 1245.488647,230.000000 
	C1244.963013,221.775558 1245.150635,214.111252 1243.843506,206.710968 
	C1241.810547,195.201706 1236.353271,185.399139 1226.246826,178.756516 
	C1217.624878,173.089676 1207.975098,172.509354 1198.073486,172.983124 
	C1184.547485,173.630325 1174.081665,179.695633 1165.936646,190.370483 
	C1154.024170,205.982880 1153.112549,223.757614 1156.128418,242.000168 
	C1158.502075,256.357727 1166.554077,267.118103 1179.641235,273.977295 
	C1192.221680,280.570892 1205.808838,279.436035 1219.114258,278.702515 
	C1226.112183,278.316772 1232.968018,275.358826 1239.760864,273.595398 
	C1238.540161,268.177521 1237.526489,263.678619 1236.406006,258.705719 
	C1226.009644,262.723541 1215.227905,264.954376 1204.032471,263.962494 
	C1195.156372,263.176086 1187.500610,260.058685 1181.331909,253.030685 
	C1175.492432,246.377930 1174.536133,238.411514 1172.925537,230.000000 
	C1175.039429,230.000000 1176.847656,230.000000 1179.617676,230.000000 
M1027.000000,179.500000 
	C1027.000000,211.924713 1027.000000,244.349426 1027.000000,276.714844 
	C1033.640259,276.714844 1039.711426,276.714844 1046.168945,276.714844 
	C1046.168945,234.696991 1046.168945,192.962875 1046.168945,150.834442 
	C1060.631958,150.834442 1074.707031,150.834442 1088.714844,150.834442 
	C1088.714844,145.358521 1088.714844,140.286011 1088.714844,135.281708 
	C1053.361450,135.281708 1018.293945,135.281708 983.285156,135.281708 
	C983.285156,140.640121 983.285156,145.712097 983.285156,151.174744 
	C997.974060,151.174744 1012.381897,151.174744 1027.000000,151.174744 
	C1027.000000,160.547531 1027.000000,169.523773 1027.000000,179.500000 
M182.758347,383.112915 
	C181.992386,383.411926 181.061203,383.529877 180.494354,384.047119 
	C179.258514,385.174896 178.208069,386.505890 177.081848,387.753815 
	C178.547867,388.834045 179.945084,390.034027 181.513809,390.935547 
	C182.140823,391.295898 183.146057,390.999786 183.979126,390.999786 
	C215.635925,391.000061 247.292725,391.000092 278.949524,390.999512 
	C279.949188,390.999481 281.137299,391.336548 281.907959,390.914520 
	C283.367645,390.115204 284.587738,388.878418 285.907379,387.823395 
	C284.805054,386.564392 283.947205,384.786713 282.559723,384.132751 
	C275.006439,380.572601 267.360962,377.198761 259.668793,373.946289 
	C255.336029,372.114258 253.817947,368.682281 254.061264,364.460266 
	C254.449020,357.732391 255.115356,351.013916 255.888519,344.317413 
	C256.330627,340.488281 253.194611,336.093750 249.276779,336.041779 
	C240.114594,335.920258 230.948944,335.933563 221.786209,336.032501 
	C217.338226,336.080505 214.599854,338.605469 214.079834,342.927094 
	C213.469101,348.002686 213.480057,353.150421 212.962479,358.240570 
	C212.359375,364.171814 212.797836,370.680450 205.724060,373.634003 
	C198.317413,376.726501 190.932968,379.872192 182.758347,383.112915 
M686.000000,157.500000 
	C686.000000,197.258270 686.000000,237.016525 686.000000,276.713898 
	C692.640991,276.713898 698.713135,276.713898 704.717407,276.713898 
	C704.717407,226.693741 704.717407,176.960190 704.717407,127.286087 
	C698.358215,127.286087 692.286743,127.286087 686.000000,127.286087 
	C686.000000,137.213760 686.000000,146.856888 686.000000,157.500000 
M656.000000,195.500000 
	C656.000000,172.739243 656.000000,149.978500 656.000000,127.288795 
	C649.353455,127.288795 643.281067,127.288795 637.285278,127.288795 
	C637.285278,177.311661 637.285278,227.045227 637.285278,276.711243 
	C643.646484,276.711243 649.718872,276.711243 656.000000,276.711243 
	C656.000000,249.782059 656.000000,223.141037 656.000000,195.500000 
M1113.999878,261.496735 
	C1114.333252,247.427460 1114.659790,233.358002 1115.002441,219.288956 
	C1115.207520,210.865341 1117.849243,203.343155 1124.057617,197.518112 
	C1130.452637,191.517853 1138.135986,189.528717 1146.736084,191.804367 
	C1146.736084,185.416016 1146.736084,179.334503 1146.736084,173.370102 
	C1129.963135,170.609528 1119.276245,178.360352 1111.810791,192.477280 
	C1111.810791,186.733444 1111.810791,180.989594 1111.810791,175.205353 
	C1105.699341,175.205353 1099.929565,175.205353 1094.825806,175.205353 
	C1094.825806,209.200119 1094.825806,243.001282 1094.825806,276.708649 
	C1101.659668,276.708649 1107.728516,276.708649 1114.000000,276.708649 
	C1114.000000,271.778595 1114.000000,267.136963 1113.999878,261.496735 
M592.591858,175.000000 
	C590.818542,175.000000 589.045227,175.000000 587.257080,175.000000 
	C587.257080,209.249588 587.257080,242.985855 587.257080,276.739166 
	C593.589478,276.739166 599.661255,276.739166 605.738342,276.739166 
	C605.738342,242.741257 605.738342,209.004868 605.738342,175.409119 
	C605.338867,175.196396 605.201599,175.059845 605.063232,175.058838 
	C601.230774,175.030807 597.398315,175.016541 592.591858,175.000000 
M232.731400,314.936859 
	C237.748337,316.849854 240.953415,314.960175 240.973328,309.829529 
	C241.041733,292.195496 241.046310,274.560852 240.967499,256.926941 
	C240.946991,252.340591 236.358704,249.475952 232.268539,251.340897 
	C230.986938,251.925247 229.861572,252.852295 228.751053,253.566925 
	C228.832321,255.280258 228.986908,257.047668 228.988968,258.815247 
	C229.007751,274.952271 228.872421,291.091370 229.136078,307.224091 
	C229.176117,309.673615 231.032639,312.093414 232.731400,314.936859 
M588.639404,136.907837 
	C584.954590,140.732758 583.723267,147.507217 585.699951,152.194199 
	C588.064636,157.801041 592.704651,158.264374 597.889282,158.040558 
	C602.969971,157.821213 607.234009,154.873810 607.991211,150.660034 
	C609.326782,143.227661 607.303284,136.988129 601.994263,135.791183 
	C597.964722,134.882675 593.467529,136.047928 588.639404,136.907837 
z"/>
<path fill="#C2F900" opacity="1.000000" stroke="none" 
	d="
M206.020721,226.988037 
	C204.800186,227.735519 203.018494,228.190475 202.451279,229.278549 
	C199.069275,235.765991 195.952957,242.354126 195.975403,249.973831 
	C196.043671,273.136414 196.081070,296.299957 195.885696,319.461090 
	C195.864120,322.018585 194.686081,324.851562 193.223251,326.996857 
	C192.437210,328.149597 189.505188,328.977539 188.255203,328.401978 
	C186.491211,327.589752 185.186737,325.463470 184.091492,323.653503 
	C183.574554,322.799194 184.000000,321.374115 184.000000,320.207642 
	C183.999847,276.215027 184.008087,232.222443 183.974670,188.229858 
	C183.973053,186.109238 183.222336,183.936020 183.506683,181.882278 
	C183.838074,179.488602 184.308548,176.545380 185.875763,175.068344 
	C187.171738,173.846939 190.614410,173.542252 192.257431,174.419876 
	C194.021179,175.361969 195.779465,178.130356 195.837250,180.150497 
	C196.170578,191.803101 195.999802,203.470123 197.194748,215.675980 
	C198.128159,213.439331 199.870987,211.198975 199.860718,208.966675 
	C199.803482,196.536865 199.452713,184.103317 198.912918,171.683624 
	C198.724655,167.352356 194.168945,164.273514 189.508392,163.921463 
	C185.111191,163.589294 181.561005,166.720673 180.048981,173.868286 
	C179.778915,175.145004 180.000610,176.526413 180.000595,177.859482 
	C180.000031,221.518799 180.005981,265.178101 179.993210,308.837433 
	C179.991501,314.695831 176.101730,317.459808 171.107483,314.805542 
	C169.619080,314.014496 168.133896,311.569214 168.128098,309.876862 
	C167.968475,263.218597 167.972977,216.559616 168.034882,169.900879 
	C168.042679,164.028320 174.184280,154.963974 182.950012,152.358047 
	C195.720917,148.561462 208.430832,156.999268 210.562195,166.131027 
	C210.932022,167.715530 210.977020,169.401581 210.982086,171.041336 
	C211.016556,182.196350 211.000137,193.351517 211.000137,204.506653 
	C211.440308,204.642776 211.880493,204.778900 212.320663,204.915024 
	C212.880173,203.541748 213.906494,202.174637 213.924744,200.794189 
	C214.061386,190.464417 214.608841,180.085800 213.830856,169.813126 
	C213.017090,159.067368 202.754166,150.322708 192.110596,149.036514 
	C176.898926,147.198303 164.925522,161.129257 164.956635,174.844574 
	C165.067764,223.836075 164.973770,272.828033 165.060318,321.819641 
	C165.065994,325.032715 164.362900,327.720459 161.133850,328.235413 
	C159.019806,328.572571 156.274399,327.973907 154.559387,326.748260 
	C153.377167,325.903381 153.063385,323.268982 153.060104,321.433075 
	C152.982452,278.107208 152.942917,234.780991 153.045334,191.455200 
	C153.067230,182.193344 153.129288,172.868317 154.229126,163.699081 
	C154.775650,159.142685 157.715942,154.873428 158.911819,149.804276 
	C157.388870,151.945557 155.385056,153.893814 154.433548,156.264450 
	C151.625519,163.260590 149.867508,170.431595 149.903732,178.179214 
	C150.104813,221.171036 150.000336,264.164276 149.999908,307.157043 
	C149.999847,313.226654 148.097488,316.010468 143.969955,315.987732 
	C139.939331,315.965515 137.007980,312.187622 137.006439,306.876434 
	C136.994522,265.883331 136.999863,224.890244 136.999863,183.897141 
	C136.999863,160.734375 137.065170,137.571320 136.961273,114.409019 
	C136.928818,107.172401 138.053604,100.431137 143.394104,94.393600 
	C153.571320,86.176590 163.821259,87.632454 175.064713,93.470680 
	C166.970062,83.418167 151.485123,82.356003 142.366455,93.298920 
	C135.470795,98.946205 134.086700,106.894241 134.071884,114.992500 
	C133.946320,183.656601 133.995728,252.321030 134.015640,320.985352 
	C134.016464,323.844055 134.256561,326.539124 130.905609,328.069580 
	C127.135170,329.791656 123.471588,328.046906 123.025635,323.900574 
	C122.883858,322.582397 122.999985,321.236359 122.999977,319.903076 
	C122.999794,249.238815 123.023590,178.574554 122.966377,107.910339 
	C122.960030,100.067261 125.022697,93.117813 130.257095,87.189888 
	C130.626831,86.771172 130.756149,86.140175 130.345779,84.930405 
	C129.415649,85.599991 128.197571,86.077560 127.602219,86.970398 
	C123.784111,92.696320 120.083405,98.604935 120.039444,105.755775 
	C119.639328,170.851120 119.327843,235.947021 119.018456,301.042908 
	C119.003990,304.085632 119.545815,307.151947 119.314140,310.167786 
	C118.955414,314.837555 115.578156,315.488342 111.766373,314.969421 
	C107.919624,314.445679 107.977036,311.553375 107.979698,308.591461 
	C108.011040,273.759338 107.999802,238.927200 107.999794,204.095062 
	C107.999794,202.949982 107.999802,201.804901 107.999802,200.175644 
	C104.001305,202.661255 103.996071,206.219070 103.996628,209.799911 
	C104.002380,247.131973 103.962479,284.464142 104.059845,321.795959 
	C104.069344,325.434174 103.012253,328.227234 99.444550,328.873291 
	C95.075066,329.664581 91.877525,328.920013 91.906265,322.791443 
	C92.089897,283.626953 91.999733,244.461197 91.999924,205.295868 
	C91.999962,197.596741 97.213974,189.933289 104.436096,187.003143 
	C105.540710,186.554977 106.632538,186.075333 107.730286,185.610245 
	C107.519440,185.062286 107.308594,184.514343 107.097755,183.966400 
	C104.411629,185.137497 101.287552,185.781433 99.122711,187.579971 
	C92.982857,192.680878 89.003410,199.146729 89.002220,207.487869 
	C88.997398,241.320053 89.002136,275.152222 88.998444,308.984406 
	C88.997749,315.337006 87.550117,316.874390 81.371841,315.820160 
	C79.727562,315.539581 78.171097,313.285645 77.112175,311.599884 
	C76.511269,310.643219 77.000015,309.001343 77.000008,307.668060 
	C76.999786,270.339905 76.999825,233.011734 76.999825,195.683578 
	C76.638100,195.623123 76.276367,195.562668 75.914642,195.502213 
	C75.276489,199.375732 74.097862,203.247314 74.083878,207.123093 
	C73.945534,245.454620 73.980766,283.786865 74.030258,322.118835 
	C74.035194,325.945312 73.883797,329.181885 68.708138,329.042114 
	C63.979202,328.914459 62.013321,327.063507 62.007847,321.969116 
	C61.987667,303.188629 61.999832,284.408173 61.999832,265.627686 
	C61.448971,265.517456 60.898106,265.407257 60.347244,265.297058 
	C59.564922,269.226318 58.219322,273.139679 58.107944,277.087891 
	C57.797890,288.078766 57.898468,299.085480 58.051823,310.082977 
	C58.110516,314.292175 56.588287,316.137360 52.242992,316.069611 
	C47.978668,316.003052 46.930531,313.857727 46.959183,310.071564 
	C47.062595,296.406158 47.260082,282.732635 46.901436,269.075867 
	C46.688919,260.983490 51.095150,256.315125 57.159325,252.395859 
	C58.827679,251.317612 60.556438,250.332809 61.880070,248.737961 
	C55.457222,250.100967 50.291050,253.598969 47.132614,259.205383 
	C43.620090,265.440369 42.787788,272.410004 42.921581,279.622101 
	C43.187378,293.950012 42.938847,308.286743 43.041004,322.618866 
	C43.068359,326.456940 42.391212,329.005066 37.709946,329.080536 
	C32.862637,329.158600 31.920734,326.711517 31.947598,322.536133 
	C32.067692,303.870880 31.981522,285.204376 32.006748,266.538391 
	C32.021626,255.531845 41.869457,241.802582 52.366642,238.005234 
	C55.553986,236.852203 58.709633,235.611572 63.080502,233.956345 
	C61.067791,233.479660 60.023621,232.862717 59.241413,233.102005 
	C45.444458,237.323074 34.906380,245.397354 31.134695,259.805389 
	C29.166973,267.322235 28.548326,275.282776 28.115660,283.087036 
	C27.618244,292.059143 27.884638,301.082153 28.051140,310.078766 
	C28.129002,314.285828 26.595385,316.137085 22.247000,316.069763 
	C17.985231,316.003754 16.935087,313.864288 16.959251,310.075623 
	C17.057047,294.743439 16.488337,279.386963 17.184761,264.085876 
	C17.628145,254.344284 21.965576,245.657684 28.362114,238.074722 
	C37.133823,227.676102 48.294468,221.787506 61.999802,219.933411 
	C61.999802,214.863785 62.043995,210.054459 61.991940,205.246155 
	C61.794830,187.038437 75.243813,165.924835 92.654060,159.988388 
	C95.996124,158.848846 99.291374,157.421967 102.729904,156.754227 
	C106.818985,155.960129 108.214966,154.181885 108.120911,149.843170 
	C107.803131,135.183884 108.018799,120.513435 107.992424,105.847313 
	C107.977592,97.599052 110.790756,90.305527 114.890121,83.260674 
	C121.749222,71.473145 131.697342,64.131149 144.810837,60.531498 
	C157.090942,57.160610 168.904739,58.191647 180.565491,62.884655 
	C181.453552,63.242058 182.344345,63.592667 182.288284,63.570370 
	C184.883560,55.995655 186.432846,48.026917 190.166046,41.263664 
	C199.167511,24.956160 213.239380,16.034338 232.252274,14.900467 
	C246.653687,14.041611 259.159332,18.301052 269.841064,27.525782 
	C278.773590,35.239933 284.812042,45.318195 285.768250,57.081131 
	C286.797729,69.745590 286.000916,82.558510 286.000916,95.485733 
	C299.279785,97.907555 309.915070,102.896370 318.658264,111.991318 
	C326.015259,119.644295 329.211700,129.032806 332.100250,138.780930 
	C332.481201,140.066559 334.159546,141.695389 335.424408,141.879791 
	C349.250916,143.895660 359.757538,151.243011 367.966461,162.082794 
	C375.225891,171.668793 378.026550,182.764252 378.015442,194.701233 
	C377.975983,237.033081 377.975464,279.365021 378.050232,321.696777 
	C378.055756,324.829834 377.572327,327.642212 374.231445,328.171387 
	C372.106171,328.508026 369.266144,328.078400 367.669434,326.820770 
	C366.391479,325.814178 366.068176,323.042694 366.064178,321.053009 
	C365.979218,279.054596 366.169464,237.054947 365.907440,195.058014 
	C365.816376,180.467148 360.045227,168.180649 347.419525,160.117126 
	C342.929688,157.249649 337.623566,155.660294 332.690063,153.487488 
	C332.400665,154.041992 332.111237,154.596497 331.821838,155.151001 
	C332.722992,155.759888 333.552063,156.726028 334.535980,156.924500 
	C351.559845,160.358276 363.052246,176.747894 363.024200,191.781281 
	C362.952057,230.446487 362.976776,269.111969 363.032867,307.777222 
	C363.039093,312.063751 361.645905,314.703949 356.984711,315.030304 
	C352.366821,315.353607 350.929474,313.231689 350.941345,308.810547 
	C351.043427,270.812103 351.007599,232.813278 350.995178,194.814575 
	C350.991516,183.619675 344.179657,173.375046 334.736511,170.332138 
	C334.009003,170.097687 333.183533,170.167343 331.807892,170.040909 
	C335.562775,172.793900 338.989197,174.955673 341.996674,177.594833 
	C346.297424,181.368927 348.024200,186.371201 348.019379,192.094238 
	C347.983734,234.426102 348.001984,276.757996 347.997925,319.089905 
	C347.997345,325.291077 346.380707,326.940002 340.269135,325.816772 
	C338.641510,325.517609 336.633850,323.242950 336.184448,321.515320 
	C335.494110,318.861389 336.000092,315.895966 336.000092,313.062744 
	C335.999878,273.897400 336.044830,234.731903 335.904449,195.567078 
	C335.894531,192.796585 334.520569,190.030960 333.780914,187.263062 
	C333.187286,187.374664 332.593689,187.486252 332.000061,187.597855 
	C332.000061,189.332214 332.000061,191.066589 332.000061,192.800964 
	C332.000061,231.132996 331.980591,269.465057 332.029388,307.797028 
	C332.034424,311.751892 332.048737,315.262573 326.529419,315.041931 
	C321.810425,314.853241 320.002869,312.906738 320.002411,307.290985 
	C319.998291,253.959473 320.015533,200.627945 319.991364,147.296432 
	C319.983093,129.030533 306.199493,112.434593 287.675690,108.862701 
	C276.941193,106.792793 267.689026,109.419571 258.829529,115.026291 
	C257.878143,115.628372 256.823944,116.068016 255.817444,116.582985 
	C256.166748,116.961617 256.516052,117.340248 256.865356,117.718872 
	C261.747131,115.766991 266.491852,113.304916 271.534088,111.950378 
	C295.022247,105.640556 317.180878,123.347237 317.086761,144.922043 
	C316.833099,203.085617 316.979126,261.251068 317.045013,319.415649 
	C317.049622,323.487366 316.360260,326.199921 311.410248,326.071289 
	C307.656281,325.973724 305.913513,324.576294 305.971344,320.739471 
	C306.074280,313.907928 305.999939,307.073700 305.999939,300.240601 
	C305.999908,251.575592 306.136230,202.909729 305.825592,154.246704 
	C305.787262,148.239105 304.166443,141.918549 301.869049,136.321777 
	C298.132416,127.218956 287.934448,121.831306 278.167572,123.067017 
	C267.706177,124.390587 260.171631,131.572510 257.100830,141.602661 
	C256.207886,144.519302 256.064972,147.747650 256.045929,150.836014 
	C255.947220,166.834854 255.945801,182.835052 256.069763,198.833542 
	C256.085052,200.802582 257.052368,202.764236 257.578491,204.729324 
	C258.052307,204.620041 258.526123,204.510742 258.999939,204.401459 
	C258.999939,186.116760 259.538940,167.810989 258.824615,149.554245 
	C258.280731,135.654068 268.470947,124.777275 282.287933,125.718285 
	C291.077637,126.316910 296.217041,130.651978 300.491455,137.150085 
	C301.573303,138.794754 301.937469,141.180557 301.940247,143.226730 
	C302.015259,198.391418 301.980286,253.556244 302.041962,308.720947 
	C302.046326,312.637238 301.223572,315.028748 296.607758,315.082245 
	C291.677032,315.139404 290.948456,312.522125 290.954010,308.434601 
	C291.023895,256.769775 291.018555,205.104813 290.950989,153.440002 
	C290.947174,150.526138 290.518524,147.539810 289.787750,144.716629 
	C288.629028,140.240173 283.750488,137.386429 279.002930,138.004913 
	C275.640533,138.442947 271.089966,143.778763 271.062195,148.143372 
	C270.931702,168.641846 270.909698,189.142624 271.133789,209.639465 
	C271.158875,211.935349 272.988251,214.211517 274.999939,216.221359 
	C274.999939,201.327438 274.999908,186.433517 274.999939,171.539597 
	C274.999969,165.539810 275.087860,159.538254 274.967621,153.540878 
	C274.894104,149.875000 276.218079,147.980972 280.131317,147.950867 
	C284.023071,147.920944 286.429382,149.404694 286.980804,153.374161 
	C287.094391,154.191803 286.999908,155.038498 286.999939,155.871796 
	C287.000061,210.036606 287.001770,264.201416 286.997345,318.366241 
	C286.996918,323.686462 285.215179,325.777374 280.895386,326.029907 
	C276.655334,326.277832 274.926025,324.542877 274.948120,320.221466 
	C275.060486,298.222809 274.994232,276.223236 275.001526,254.223999 
	C275.009125,231.173401 260.344849,213.490631 236.021729,211.249313 
	C227.399918,210.454803 219.037842,214.014618 212.049561,219.543945 
	C209.552109,221.519989 207.569168,224.146317 205.662766,226.755310 
	C205.974152,227.034821 206.020721,226.988037 206.020721,226.988037 
M239.487122,68.006630 
	C239.991455,69.827080 240.906433,71.641792 240.932022,73.468941 
	C241.074097,83.619003 240.930206,93.772926 241.049255,103.923576 
	C241.079071,106.464996 241.716721,108.999290 242.074997,111.536858 
	C243.836334,110.407005 244.909805,109.150589 244.920593,107.885117 
	C245.039597,93.906281 245.132446,79.923889 244.915131,65.947388 
	C244.841339,61.202610 238.984451,56.630394 234.351532,57.003323 
	C229.123077,57.424194 225.592316,62.110958 225.922165,67.930473 
	C226.104828,71.153069 225.997162,74.392853 225.997986,77.624893 
	C226.002502,95.599022 225.944870,113.573532 226.067062,131.546829 
	C226.083130,133.912186 227.006454,136.271393 227.509583,138.633453 
	C228.006348,138.553040 228.503098,138.472626 228.999863,138.392212 
	C228.999863,136.825668 228.999863,135.259109 228.999863,133.692566 
	C228.999863,114.387016 228.999100,95.081459 229.000214,75.775909 
	C229.000687,67.634178 230.542343,66.327843 239.487122,68.006630 
M272.012421,94.113029 
	C272.581085,94.713715 273.149750,95.314400 273.718414,95.915085 
	C274.143188,95.166245 274.972351,94.395172 274.932587,93.671867 
	C274.254120,81.331406 276.410736,68.936340 273.138458,56.614254 
	C268.872894,40.551975 255.648651,29.336714 240.123383,27.137606 
	C215.317795,23.623966 192.684113,46.963932 196.075790,71.975960 
	C196.256699,73.310059 197.446167,74.507393 198.166122,75.768394 
	C198.606964,75.638916 199.047821,75.509430 199.488663,75.379951 
	C199.488663,69.256882 198.440292,62.909946 199.690796,57.053921 
	C203.060989,41.271603 218.318573,29.318979 236.257706,29.728500 
	C255.311783,30.163469 272.287750,45.746334 272.020996,65.690895 
	C271.898468,74.851570 272.001129,84.015251 272.012421,94.113029 
M164.968857,114.207207 
	C164.968857,118.597061 164.968857,122.986916 164.968857,127.376762 
	C167.051773,126.236725 168.698212,124.744171 168.857025,123.107300 
	C169.256424,118.990501 169.273621,114.783028 168.910233,110.658943 
	C168.420929,105.105980 163.653854,100.913559 158.547821,101.000328 
	C153.974457,101.078049 149.228348,105.717613 149.078644,111.060181 
	C148.814713,120.478607 149.004791,129.909744 149.004791,139.335571 
	C149.484634,139.498459 149.964478,139.661346 150.444321,139.824234 
	C151.296127,137.652893 152.717392,135.524185 152.883759,133.301514 
	C153.254974,128.342148 153.070129,123.334549 152.974716,118.349220 
	C152.912827,115.115829 152.818954,112.225082 156.656647,110.644569 
	C160.434128,109.088860 162.535660,111.123474 164.968857,114.207207 
M212.713348,126.861450 
	C213.142166,125.305138 213.937286,123.750443 213.944153,122.192261 
	C214.029358,102.865486 213.994751,83.538216 214.001709,64.211067 
	C214.006104,52.019432 225.997879,42.268093 237.840408,44.964794 
	C241.998169,45.911575 246.050491,47.321320 251.230392,48.835125 
	C249.419006,47.143196 248.459961,45.760254 247.139328,45.093330 
	C238.875671,40.920101 230.677017,40.436806 222.605606,45.785946 
	C215.595978,50.431412 211.238419,56.856331 211.098755,65.222527 
	C210.784576,84.044586 210.977371,102.875572 211.042114,121.702660 
	C211.047470,123.263481 211.645279,124.822273 212.713348,126.861450 
M226.000137,182.498764 
	C226.726059,188.257034 224.467834,194.463791 228.206818,199.804337 
	C228.999802,190.260483 229.034561,180.802841 228.991409,171.345551 
	C228.931229,158.156708 217.237244,141.707352 204.983276,137.005905 
	C191.230545,131.729431 178.453018,133.160095 166.605621,141.952484 
	C164.578033,143.457214 162.834930,145.345291 160.960403,147.056290 
	C161.274979,147.541809 161.589554,148.027313 161.904114,148.512833 
	C170.474228,139.533554 180.795761,136.455551 192.929977,136.796982 
	C206.142776,137.168747 220.814682,148.139938 223.784943,159.574768 
	C225.610077,166.601135 225.333160,174.173508 226.000137,182.498764 
M170.242844,74.979866 
	C192.805450,82.793602 197.486435,100.808014 195.932388,122.814873 
	C199.837769,118.916153 200.042023,107.030075 196.676758,98.447678 
	C190.230347,82.007431 178.419571,72.307434 160.428650,70.743759 
	C151.081223,69.931335 137.577072,75.405693 133.820282,82.373711 
	C144.366592,73.146873 156.616394,72.625923 170.242844,74.979866 
M241.310684,198.747696 
	C241.944489,199.177872 242.578308,199.608063 243.999832,200.572891 
	C243.999832,198.171921 243.999832,196.581558 243.999832,194.991211 
	C243.999832,179.166183 243.966553,163.340988 244.039932,147.516296 
	C244.049652,145.421631 244.568390,143.323792 244.914047,141.237808 
	C245.233505,139.309921 245.642792,137.397018 246.001953,135.475555 
	C246.337677,133.679352 246.659485,131.880539 246.987427,130.082886 
	C246.253769,129.939865 245.520096,129.796860 244.786438,129.653854 
	C243.524384,135.742386 241.355667,141.804123 241.174667,147.924637 
	C240.682510,164.567245 241.031616,181.234711 241.310684,198.747696 
M259.999115,96.081551 
	C259.999390,87.422142 260.469391,78.727760 259.828247,70.116104 
	C259.427338,64.730568 257.423218,59.450016 255.959518,54.172001 
	C255.713394,53.284389 254.556091,52.649452 253.819778,51.897774 
	C260.629181,67.717644 254.927414,84.182861 258.505402,100.103447 
	C259.001495,99.065353 259.497589,98.027260 259.999115,96.081551 
M79.628754,189.872574 
	C80.396858,189.357315 81.500092,189.019485 81.881363,188.299393 
	C85.822449,180.856064 92.039734,176.050247 99.620842,172.851700 
	C102.289932,171.725601 105.102989,170.940704 108.595947,169.744690 
	C100.567650,166.523468 82.506882,178.926697 79.628754,189.872574 
M177.424637,93.972519 
	C176.610504,93.654205 175.796356,93.335884 175.162506,93.088058 
	C176.961166,97.458069 179.279190,101.543785 180.265961,105.929062 
	C181.222778,110.181335 180.718689,114.748909 181.075226,119.160301 
	C181.152527,120.116776 182.163132,120.997818 182.743866,121.913605 
	C183.161987,120.998886 183.894043,120.102730 183.949402,119.166565 
	C184.470108,110.360115 183.124847,101.980087 177.424637,93.972519 
M251.582306,124.885025 
	C251.630142,124.181320 251.677963,123.477615 251.725784,122.773911 
	C251.415070,122.634636 251.104370,122.495354 250.793655,122.356071 
	C249.387085,124.455925 247.980530,126.555771 246.573959,128.655624 
	C246.940262,128.915741 247.306564,129.175858 247.672867,129.435974 
	C248.794373,128.103867 249.915863,126.771767 251.582306,124.885025 
M252.083725,121.628853 
	C253.614761,120.836815 255.145782,120.044785 256.676819,119.252747 
	C256.336945,118.757080 255.997101,118.261414 255.657257,117.765755 
	C254.464737,118.784637 253.272217,119.803528 252.083725,121.628853 
M250.654663,49.481808 
	C250.972931,49.803051 251.291199,50.124294 251.609467,50.445545 
	C251.493835,50.001915 251.378204,49.558289 250.654663,49.481808 
z"/>
<path fill="#000000" opacity="1.000000" stroke="none" 
	d="
M408.000000,169.002502 
	C405.204468,157.555695 402.411407,146.536621 399.487396,135.000824 
	C406.059753,135.000824 411.876038,134.820892 417.663116,135.151855 
	C418.828094,135.218475 420.571594,137.057495 420.885956,138.359924 
	C427.679871,166.505402 434.401215,194.669388 440.914337,222.881088 
	C442.945953,231.681061 444.304901,240.635513 446.047272,249.504410 
	C446.212555,250.345749 446.919037,251.080780 446.890106,251.030914 
	C456.859283,212.759674 466.944031,174.044830 477.066803,135.183990 
	C483.967041,135.183990 490.758972,135.183990 497.958679,135.183990 
	C506.894867,173.337250 515.836426,211.513367 524.758728,249.607407 
	C534.487000,211.638565 544.273621,173.441711 554.083069,135.155930 
	C560.775818,135.155930 567.234375,135.155930 574.391663,135.155930 
	C572.239563,142.498917 570.114563,149.503479 568.134460,156.548737 
	C560.060364,185.276688 552.056641,214.024414 543.970642,242.749008 
	C541.058472,253.094513 537.956543,263.386566 535.013306,273.723511 
	C534.353821,276.039734 533.330994,277.188141 530.629700,277.072937 
	C524.985046,276.832092 519.322998,276.999969 513.346985,276.999969 
	C504.413971,239.123322 495.498932,201.322708 486.329041,162.441528 
	C485.091919,167.738235 484.159180,172.242096 482.982971,176.681427 
	C477.226746,198.406876 471.422821,220.119736 465.600159,241.827515 
	C462.772644,252.368866 459.851288,262.885040 457.009979,273.422760 
	C456.428619,275.579071 455.831268,277.200958 452.918579,277.074554 
	C447.114624,276.822662 441.292053,276.999908 435.520477,276.999908 
	C429.810394,254.510101 424.185669,232.261307 418.507111,210.026260 
	C415.048431,196.483307 411.506866,182.961533 408.000000,169.002502 
z"/>
<path fill="#000000" opacity="1.000000" stroke="none" 
	d="
M956.678955,274.736267 
	C955.299072,275.715790 954.211121,276.868439 953.080139,276.912323 
	C947.931946,277.112061 942.771667,276.999908 937.325195,276.999908 
	C929.196777,250.795059 921.092896,224.669510 913.067627,198.797287 
	C911.482544,204.562271 910.001343,210.951691 907.967285,217.159973 
	C901.779907,236.044708 895.254395,254.819580 889.199524,273.745697 
	C888.319336,276.497040 887.244324,277.179016 884.815125,277.011322 
	C883.820129,276.942627 882.816345,277.000000 881.816589,277.000031 
	C869.564941,277.000397 869.627319,276.981750 866.226013,265.602295 
	C858.696655,240.411636 851.088440,215.244522 843.536377,190.060623 
	C842.057129,185.127670 840.685913,180.162308 839.204041,175.000061 
	C844.870667,175.000061 850.363953,175.067032 855.854309,174.969742 
	C858.326233,174.925919 859.487854,175.484360 860.179260,178.320923 
	C863.563843,192.206650 867.469055,205.964523 870.962830,219.824890 
	C873.872559,231.367996 876.452881,242.993958 879.234558,254.569885 
	C879.409668,255.298767 880.066956,255.911789 880.110840,255.979416 
	C888.393127,229.353882 896.803284,202.317413 905.253296,175.152740 
	C910.932434,175.152740 916.574402,175.152740 922.668335,175.152740 
	C930.727905,201.784286 938.837524,228.581253 947.077026,255.807449 
	C948.048157,251.780945 948.916626,247.740753 950.000671,243.759247 
	C955.397339,223.938126 960.721924,204.095810 966.340149,184.337234 
	C969.016968,174.923172 969.287109,175.000000 979.346497,175.000000 
	C982.155334,175.000000 984.964172,175.000000 988.485046,175.000000 
	C977.860718,208.489090 967.405945,241.443954 956.678955,274.736267 
z"/>
<path fill="#000000" opacity="1.000000" stroke="none" 
	d="
M787.534180,278.988770 
	C778.278870,278.305176 768.963562,279.214874 760.793823,276.576813 
	C744.910217,271.447968 734.296387,260.081879 730.742798,243.280167 
	C727.070801,225.918335 727.478394,208.978989 737.853149,193.590652 
	C746.777222,180.353989 759.331970,173.735916 775.258850,172.942856 
	C787.245056,172.346008 798.600403,173.673401 808.650024,180.954880 
	C821.459412,190.236069 828.210083,202.861908 828.916321,218.525375 
	C829.329407,227.685837 829.825256,236.983109 826.610962,245.865616 
	C820.411072,262.998596 808.440796,273.742065 790.695496,278.015808 
	C789.770630,278.238525 788.892029,278.653473 787.534180,278.988770 
M809.000000,218.841309 
	C808.667175,217.274994 808.341919,215.707016 808.000366,214.142624 
	C804.738647,199.206329 793.307312,185.027222 774.537476,187.859726 
	C768.011841,188.844498 762.369263,191.488449 758.603821,196.173859 
	C745.580322,212.379440 744.381653,235.109299 756.051880,252.041977 
	C767.337097,268.416107 789.923096,268.639893 801.402100,252.311722 
	C808.437439,242.304398 809.633179,231.356125 809.000000,218.841309 
z"/>
<path fill="#000000" opacity="1.000000" stroke="none" 
	d="
M1293.122559,259.010986 
	C1307.198486,266.939789 1321.334717,264.580780 1335.511230,260.794373 
	C1337.506470,260.261505 1339.418335,259.416229 1341.407959,258.701477 
	C1342.522705,263.693634 1343.554565,268.314789 1344.906250,274.368347 
	C1335.909668,275.934021 1327.144409,278.291168 1318.279053,278.761902 
	C1309.871338,279.208313 1301.079102,278.804932 1292.949341,276.787201 
	C1275.122559,272.362793 1264.459839,259.979095 1261.159424,242.199371 
	C1257.713989,223.639175 1259.097412,205.332062 1271.176636,189.739243 
	C1278.997192,179.643875 1289.482178,173.408081 1302.805054,172.969437 
	C1312.682617,172.644257 1322.416382,172.899506 1331.040039,178.562744 
	C1341.259155,185.273819 1346.872314,195.171066 1348.855713,206.897064 
	C1350.106201,214.290054 1349.958618,221.919586 1350.471680,229.969116 
	C1325.862915,229.969116 1301.987305,229.969116 1278.117554,229.969116 
	C1279.166016,241.930725 1282.655151,252.146347 1293.122559,259.010986 
M1331.034058,213.172012 
	C1330.965820,197.608765 1320.897949,185.129395 1302.822876,186.996674 
	C1290.149780,188.305908 1279.425537,201.879196 1279.402100,215.998932 
	C1296.180298,215.998932 1312.959961,216.019043 1329.738770,215.913422 
	C1330.312378,215.909805 1330.878052,214.644516 1331.034058,213.172012 
z"/>
<path fill="#000000" opacity="1.000000" stroke="none" 
	d="
M1179.136719,230.000000 
	C1176.847656,230.000000 1175.039429,230.000000 1172.925537,230.000000 
	C1174.536133,238.411514 1175.492432,246.377930 1181.331909,253.030685 
	C1187.500610,260.058685 1195.156372,263.176086 1204.032471,263.962494 
	C1215.227905,264.954376 1226.009644,262.723541 1236.406006,258.705719 
	C1237.526489,263.678619 1238.540161,268.177521 1239.760864,273.595398 
	C1232.968018,275.358826 1226.112183,278.316772 1219.114258,278.702515 
	C1205.808838,279.436035 1192.221680,280.570892 1179.641235,273.977295 
	C1166.554077,267.118103 1158.502075,256.357727 1156.128418,242.000168 
	C1153.112549,223.757614 1154.024170,205.982880 1165.936646,190.370483 
	C1174.081665,179.695633 1184.547485,173.630325 1198.073486,172.983124 
	C1207.975098,172.509354 1217.624878,173.089676 1226.246826,178.756516 
	C1236.353271,185.399139 1241.810547,195.201706 1243.843506,206.710968 
	C1245.150635,214.111252 1244.963013,221.775558 1245.488647,230.000000 
	C1223.113281,230.000000 1201.365479,230.000000 1179.136719,230.000000 
M1207.499512,216.000000 
	C1213.952026,216.000000 1220.404663,216.000000 1226.601685,216.000000 
	C1226.253418,207.417282 1224.556641,199.409912 1218.715210,193.428009 
	C1212.458252,187.020447 1204.011475,185.512833 1195.597534,187.297623 
	C1182.440674,190.088501 1173.485718,205.476425 1174.641113,216.000000 
	C1185.246826,216.000000 1195.873291,216.000000 1207.499512,216.000000 
z"/>
<path fill="#C2F900" opacity="1.000000" stroke="none" 
	d="
M205.953278,227.060394 
	C211.635666,223.385040 216.902725,218.510132 223.122406,216.199097 
	C243.321121,208.693863 266.670166,220.621490 270.938843,242.854538 
	C271.739044,247.022293 271.928253,251.355560 271.954712,255.615204 
	C272.063263,273.109009 272.008759,290.603882 271.993317,308.098358 
	C271.989899,311.952576 269.008453,315.880829 266.090363,315.989044 
	C262.307190,316.129333 260.003204,313.204315 260.001862,308.220337 
	C259.996979,289.726166 260.142670,271.230377 259.932037,252.738617 
	C259.843689,244.979767 257.618683,237.501129 251.109650,232.805222 
	C241.068054,225.560776 234.054367,223.219620 223.655945,230.969894 
	C225.014221,230.686264 226.421921,230.545929 227.723221,230.097122 
	C242.834579,224.885208 257.643890,236.846573 257.194122,251.336838 
	C256.470856,274.640350 257.002869,297.982758 256.997772,321.308716 
	C256.996704,326.290680 254.674454,329.381622 250.828140,328.916687 
	C246.652206,328.411926 244.862640,326.004578 244.904602,321.446838 
	C245.113220,298.789246 244.989441,276.128693 245.008209,253.469193 
	C245.012161,248.704010 243.574127,244.819565 239.046280,242.505524 
	C233.384323,239.611862 225.950989,244.449142 225.972961,250.842010 
	C226.054352,274.519592 226.019180,298.197662 225.981262,321.875458 
	C225.975601,325.415222 222.472488,329.233887 219.187866,328.906647 
	C215.240692,328.513397 213.940857,325.811279 213.954742,321.945190 
	C214.043350,297.286621 213.972015,272.627502 214.041733,247.968842 
	C214.048935,245.422089 214.637558,242.876984 214.956390,240.331131 
	C214.399017,240.188644 213.841660,240.046143 213.284286,239.903656 
	C212.522919,243.083771 211.136032,246.257324 211.102554,249.445068 
	C210.897888,268.936768 211.010147,288.431702 210.993118,307.925537 
	C210.988876,312.776703 209.088852,314.791016 204.839233,315.031403 
	C200.557495,315.273651 198.920746,313.442169 198.948013,309.168091 
	C199.068100,290.341461 199.361420,271.503754 198.846359,252.690445 
	C198.591263,243.372147 201.064377,235.313156 206.004669,227.351974 
	C206.020721,226.988037 205.974152,227.034821 205.953278,227.060394 
M268.997314,307.369354 
	C268.664886,303.580811 268.074127,299.794220 268.045624,296.003387 
	C267.933960,281.175140 268.037750,266.345459 267.988007,251.516541 
	C267.948578,239.764130 263.919434,229.949188 253.797852,223.247025 
	C252.029953,222.076385 250.219803,220.524231 248.261185,220.216110 
	C246.418579,219.926254 244.353958,221.047546 242.387024,221.547974 
	C243.674942,223.068970 244.688858,225.029709 246.299271,226.033127 
	C252.524139,229.911758 258.508209,233.841370 261.189270,241.234726 
	C261.880219,243.140091 263.480225,244.715775 264.449493,246.131577 
	C263.920746,248.333557 263.072510,250.244873 263.062103,252.160721 
	C262.961731,270.654877 262.948334,289.150208 263.108521,307.643524 
	C263.120850,309.065857 264.640686,310.475128 265.459808,311.890503 
	C266.638000,310.673462 267.816223,309.456451 268.997314,307.369354 
M203.000000,263.523987 
	C202.689926,277.627136 202.356033,291.729919 202.116425,305.834259 
	C202.097885,306.925171 202.460571,308.278076 203.154297,309.056030 
	C203.897858,309.889862 205.242691,310.187531 206.325073,310.719208 
	C206.770416,309.611267 207.671814,308.455780 207.562347,307.405701 
	C207.359726,305.461792 206.075089,303.574463 206.094482,301.672302 
	C206.268845,284.571594 206.671082,267.473328 206.879486,250.372772 
	C206.904587,248.312485 206.175934,246.243011 205.796616,244.177811 
	C205.098419,244.161804 204.400223,244.145798 203.702026,244.129791 
	C203.152191,246.147552 202.148499,248.165100 202.147644,250.183105 
	C202.145889,254.300186 202.684174,258.417511 203.000000,263.523987 
M206.279282,236.309052 
	C209.657196,241.857056 211.375961,236.929642 212.912430,234.969482 
	C218.270798,228.133560 225.225342,224.389282 233.666428,222.918716 
	C235.154114,222.659546 236.459473,221.353760 237.849030,220.531296 
	C236.479187,219.688324 235.190765,218.312149 233.726364,218.088562 
	C223.897263,216.587753 210.340149,225.035889 206.279282,236.309052 
M206.684586,241.317368 
	C206.395050,241.025391 206.105515,240.733398 205.815979,240.441406 
	C205.635391,240.973572 205.454819,241.505722 205.274246,242.037903 
	C205.670319,241.965225 206.066391,241.892532 206.684586,241.317368 
z"/>
<path fill="#000000" opacity="1.000000" stroke="none" 
	d="
M1027.000000,179.000000 
	C1027.000000,169.523773 1027.000000,160.547531 1027.000000,151.174744 
	C1012.381897,151.174744 997.974060,151.174744 983.285156,151.174744 
	C983.285156,145.712097 983.285156,140.640121 983.285156,135.281708 
	C1018.293945,135.281708 1053.361450,135.281708 1088.714844,135.281708 
	C1088.714844,140.286011 1088.714844,145.358521 1088.714844,150.834442 
	C1074.707031,150.834442 1060.631958,150.834442 1046.168945,150.834442 
	C1046.168945,192.962875 1046.168945,234.696991 1046.168945,276.714844 
	C1039.711426,276.714844 1033.640259,276.714844 1027.000000,276.714844 
	C1027.000000,244.349426 1027.000000,211.924713 1027.000000,179.000000 
z"/>
<path fill="#D0AC6E" opacity="1.000000" stroke="none" 
	d="
M183.148590,383.053772 
	C190.932968,379.872192 198.317413,376.726501 205.724060,373.634003 
	C212.797836,370.680450 212.359375,364.171814 212.962479,358.240570 
	C213.480057,353.150421 213.469101,348.002686 214.079834,342.927094 
	C214.599854,338.605469 217.338226,336.080505 221.786209,336.032501 
	C230.948944,335.933563 240.114594,335.920258 249.276779,336.041779 
	C253.194611,336.093750 256.330627,340.488281 255.888519,344.317413 
	C255.115356,351.013916 254.449020,357.732391 254.061264,364.460266 
	C253.817947,368.682281 255.336029,372.114258 259.668793,373.946289 
	C267.360962,377.198761 275.006439,380.572601 282.559723,384.132751 
	C283.947205,384.786713 284.805054,386.564392 285.907379,387.823395 
	C284.587738,388.878418 283.367645,390.115204 281.907959,390.914520 
	C281.137299,391.336548 279.949188,390.999481 278.949524,390.999512 
	C247.292725,391.000092 215.635925,391.000061 183.979126,390.999786 
	C183.146057,390.999786 182.140823,391.295898 181.513809,390.935547 
	C179.945084,390.034027 178.547867,388.834045 177.081848,387.753845 
	C178.208069,386.505890 179.258514,385.174896 180.494354,384.047119 
	C181.061203,383.529877 181.992386,383.411926 183.148590,383.053772 
z"/>
<path fill="#000000" opacity="1.000000" stroke="none" 
	d="
M686.000000,157.000000 
	C686.000000,146.856888 686.000000,137.213760 686.000000,127.286087 
	C692.286743,127.286087 698.358215,127.286087 704.717407,127.286087 
	C704.717407,176.960190 704.717407,226.693741 704.717407,276.713898 
	C698.713135,276.713898 692.640991,276.713898 686.000000,276.713898 
	C686.000000,237.016525 686.000000,197.258270 686.000000,157.000000 
z"/>
<path fill="#000000" opacity="1.000000" stroke="none" 
	d="
M656.000000,196.000000 
	C656.000000,223.141037 656.000000,249.782059 656.000000,276.711243 
	C649.718872,276.711243 643.646484,276.711243 637.285278,276.711243 
	C637.285278,227.045227 637.285278,177.311661 637.285278,127.288795 
	C643.281067,127.288795 649.353455,127.288795 656.000000,127.288795 
	C656.000000,149.978500 656.000000,172.739243 656.000000,196.000000 
z"/>
<path fill="#000000" opacity="1.000000" stroke="none" 
	d="
M1114.000000,261.996033 
	C1114.000000,267.136963 1114.000000,271.778595 1114.000000,276.708649 
	C1107.728516,276.708649 1101.659668,276.708649 1094.825806,276.708649 
	C1094.825806,243.001282 1094.825806,209.200119 1094.825806,175.205353 
	C1099.929565,175.205353 1105.699341,175.205353 1111.810791,175.205353 
	C1111.810791,180.989594 1111.810791,186.733444 1111.810791,192.477280 
	C1119.276245,178.360352 1129.963135,170.609528 1146.736084,173.370102 
	C1146.736084,179.334503 1146.736084,185.416016 1146.736084,191.804367 
	C1138.135986,189.528717 1130.452637,191.517853 1124.057617,197.518112 
	C1117.849243,203.343155 1115.207520,210.865341 1115.002441,219.288956 
	C1114.659790,233.358002 1114.333252,247.427460 1114.000000,261.996033 
z"/>
<path fill="#000000" opacity="1.000000" stroke="none" 
	d="
M593.078857,175.000000 
	C597.398315,175.016541 601.230774,175.030807 605.063232,175.058838 
	C605.201599,175.059845 605.338867,175.196396 605.738342,175.409119 
	C605.738342,209.004868 605.738342,242.741257 605.738342,276.739166 
	C599.661255,276.739166 593.589478,276.739166 587.257080,276.739166 
	C587.257080,242.985855 587.257080,209.249588 587.257080,175.000000 
	C589.045227,175.000000 590.818542,175.000000 593.078857,175.000000 
z"/>
<path fill="#C2F900" opacity="1.000000" stroke="none" 
	d="
M232.390182,314.731934 
	C231.032639,312.093414 229.176117,309.673615 229.136078,307.224091 
	C228.872421,291.091370 229.007751,274.952271 228.988968,258.815247 
	C228.986908,257.047668 228.832321,255.280258 228.751053,253.566925 
	C229.861572,252.852295 230.986938,251.925247 232.268539,251.340897 
	C236.358704,249.475952 240.946991,252.340591 240.967499,256.926941 
	C241.046310,274.560852 241.041733,292.195496 240.973328,309.829529 
	C240.953415,314.960175 237.748337,316.849854 232.390182,314.731934 
z"/>
<path fill="#000000" opacity="1.000000" stroke="none" 
	d="
M588.908936,136.599136 
	C593.467529,136.047928 597.964722,134.882675 601.994263,135.791183 
	C607.303284,136.988129 609.326782,143.227661 607.991211,150.660034 
	C607.234009,154.873810 602.969971,157.821213 597.889282,158.040558 
	C592.704651,158.264374 588.064636,157.801041 585.699951,152.194199 
	C583.723267,147.507217 584.954590,140.732758 588.908936,136.599136 
z"/>
<path fill="#FFFFFF" opacity="1.000000" stroke="none" 
	d="
M239.179047,67.704231 
	C230.542343,66.327843 229.000687,67.634178 229.000214,75.775909 
	C228.999100,95.081459 228.999863,114.387016 228.999863,133.692566 
	C228.999863,135.259109 228.999863,136.825668 228.999863,138.392212 
	C228.503098,138.472626 228.006348,138.553040 227.509583,138.633453 
	C227.006454,136.271393 226.083130,133.912186 226.067062,131.546829 
	C225.944870,113.573532 226.002502,95.599022 225.997986,77.624893 
	C225.997162,74.392853 226.104828,71.153069 225.922165,67.930473 
	C225.592316,62.110958 229.123077,57.424194 234.351532,57.003323 
	C238.984451,56.630394 244.841339,61.202610 244.915131,65.947388 
	C245.132446,79.923889 245.039597,93.906281 244.920593,107.885117 
	C244.909805,109.150589 243.836334,110.407005 242.074997,111.536858 
	C241.716721,108.999290 241.079071,106.464996 241.049255,103.923576 
	C240.930206,93.772926 241.074097,83.619003 240.932022,73.468941 
	C240.906433,71.641792 239.991455,69.827080 239.179047,67.704231 
z"/>
<path fill="#FFFFFF" opacity="1.000000" stroke="none" 
	d="
M272.007019,93.645302 
	C272.001129,84.015251 271.898468,74.851570 272.020996,65.690895 
	C272.287750,45.746334 255.311783,30.163469 236.257706,29.728500 
	C218.318573,29.318979 203.060989,41.271603 199.690796,57.053921 
	C198.440292,62.909946 199.488663,69.256882 199.488663,75.379951 
	C199.047821,75.509430 198.606964,75.638916 198.166122,75.768394 
	C197.446167,74.507393 196.256699,73.310059 196.075790,71.975960 
	C192.684113,46.963932 215.317795,23.623966 240.123383,27.137606 
	C255.648651,29.336714 268.872894,40.551975 273.138458,56.614254 
	C276.410736,68.936340 274.254120,81.331406 274.932587,93.671867 
	C274.972351,94.395172 274.143188,95.166245 273.718414,95.915085 
	C273.149750,95.314400 272.581085,94.713715 272.007019,93.645302 
z"/>
<path fill="#FFFFFF" opacity="1.000000" stroke="none" 
	d="
M164.879028,113.788887 
	C162.535660,111.123474 160.434128,109.088860 156.656647,110.644569 
	C152.818954,112.225082 152.912827,115.115829 152.974716,118.349220 
	C153.070129,123.334549 153.254974,128.342148 152.883759,133.301514 
	C152.717392,135.524185 151.296127,137.652893 150.444321,139.824234 
	C149.964478,139.661346 149.484634,139.498459 149.004791,139.335571 
	C149.004791,129.909744 148.814713,120.478607 149.078644,111.060181 
	C149.228348,105.717613 153.974457,101.078049 158.547821,101.000328 
	C163.653854,100.913559 168.420929,105.105980 168.910233,110.658943 
	C169.273621,114.783028 169.256424,118.990501 168.857025,123.107300 
	C168.698212,124.744171 167.051773,126.236725 164.968857,127.376762 
	C164.968857,122.986916 164.968857,118.597061 164.879028,113.788887 
z"/>
<path fill="#FFFFFF" opacity="1.000000" stroke="none" 
	d="
M212.340576,126.621727 
	C211.645279,124.822273 211.047470,123.263481 211.042114,121.702660 
	C210.977371,102.875572 210.784576,84.044586 211.098755,65.222527 
	C211.238419,56.856331 215.595978,50.431412 222.605606,45.785946 
	C230.677017,40.436806 238.875671,40.920101 247.139328,45.093330 
	C248.459961,45.760254 249.419006,47.143196 251.230392,48.835125 
	C246.050491,47.321320 241.998169,45.911575 237.840408,44.964794 
	C225.997879,42.268093 214.006104,52.019432 214.001709,64.211067 
	C213.994751,83.538216 214.029358,102.865486 213.944153,122.192261 
	C213.937286,123.750443 213.142166,125.305138 212.340576,126.621727 
z"/>
<path fill="#FFFFFF" opacity="1.000000" stroke="none" 
	d="
M226.000137,181.999725 
	C225.333160,174.173508 225.610077,166.601135 223.784943,159.574768 
	C220.814682,148.139938 206.142776,137.168747 192.929977,136.796982 
	C180.795761,136.455551 170.474228,139.533554 161.904114,148.512833 
	C161.589554,148.027313 161.274979,147.541809 160.960403,147.056290 
	C162.834930,145.345291 164.578033,143.457214 166.605621,141.952484 
	C178.453018,133.160095 191.230545,131.729431 204.983276,137.005905 
	C217.237244,141.707352 228.931229,158.156708 228.991409,171.345551 
	C229.034561,180.802841 228.999802,190.260483 228.206818,199.804337 
	C224.467834,194.463791 226.726059,188.257034 226.000137,181.999725 
z"/>
<path fill="#FFFFFF" opacity="1.000000" stroke="none" 
	d="
M169.821671,74.907722 
	C156.616394,72.625923 144.366592,73.146873 133.820282,82.373711 
	C137.577072,75.405693 151.081223,69.931335 160.428650,70.743759 
	C178.419571,72.307434 190.230347,82.007431 196.676758,98.447678 
	C200.042023,107.030075 199.837769,118.916153 195.932388,122.814873 
	C197.486435,100.808014 192.805450,82.793602 169.821671,74.907722 
z"/>
<path fill="#FFFFFF" opacity="1.000000" stroke="none" 
	d="
M241.178986,198.320007 
	C241.031616,181.234711 240.682510,164.567245 241.174667,147.924637 
	C241.355667,141.804123 243.524384,135.742386 244.786438,129.653854 
	C245.520096,129.796860 246.253769,129.939865 246.987427,130.082886 
	C246.659485,131.880539 246.337677,133.679352 246.001953,135.475555 
	C245.642792,137.397018 245.233505,139.309921 244.914047,141.237808 
	C244.568390,143.323792 244.049652,145.421631 244.039932,147.516296 
	C243.966553,163.340988 243.999832,179.166183 243.999832,194.991211 
	C243.999832,196.581558 243.999832,198.171921 243.999832,200.572891 
	C242.578308,199.608063 241.944489,199.177872 241.178986,198.320007 
z"/>
<path fill="#FFFFFF" opacity="1.000000" stroke="none" 
	d="
M259.996399,96.535355 
	C259.497589,98.027260 259.001495,99.065353 258.505402,100.103447 
	C254.927414,84.182861 260.629181,67.717644 253.819778,51.897774 
	C254.556091,52.649452 255.713394,53.284389 255.959518,54.172001 
	C257.423218,59.450016 259.427338,64.730568 259.828247,70.116104 
	C260.469391,78.727760 259.999390,87.422142 259.996399,96.535355 
z"/>
<path fill="#FFFFFF" opacity="1.000000" stroke="none" 
	d="
M142.531448,93.505081 
	C151.485123,82.356003 166.970062,83.418167 175.064713,93.470680 
	C163.821259,87.632454 153.571320,86.176590 143.434921,94.036201 
	C142.950424,93.955093 142.823441,93.833176 142.531448,93.505081 
z"/>
<path fill="#FFFFFF" opacity="1.000000" stroke="none" 
	d="
M79.375275,189.608673 
	C82.506882,178.926697 100.567650,166.523468 108.595947,169.744690 
	C105.102989,170.940704 102.289932,171.725601 99.620842,172.851700 
	C92.039734,176.050247 85.822449,180.856064 81.881363,188.299393 
	C81.500092,189.019485 80.396858,189.357315 79.375275,189.608673 
z"/>
<path fill="#FFFFFF" opacity="1.000000" stroke="none" 
	d="
M177.666687,94.270493 
	C183.124847,101.980087 184.470108,110.360115 183.949402,119.166565 
	C183.894043,120.102730 183.161987,120.998886 182.743866,121.913605 
	C182.163132,120.997818 181.152527,120.116776 181.075226,119.160301 
	C180.718689,114.748909 181.222778,110.181335 180.265961,105.929062 
	C179.279190,101.543785 176.961166,97.458069 175.162506,93.088058 
	C175.796356,93.335884 176.610504,93.654205 177.666687,94.270493 
z"/>
<path fill="#FFFFFF" opacity="1.000000" stroke="none" 
	d="
M251.309845,125.162338 
	C249.915863,126.771767 248.794373,128.103867 247.672867,129.435974 
	C247.306564,129.175858 246.940262,128.915741 246.573959,128.655624 
	C247.980530,126.555771 249.387085,124.455925 250.793655,122.356071 
	C251.104370,122.495354 251.415070,122.634636 251.725784,122.773911 
	C251.677963,123.477615 251.630142,124.181320 251.309845,125.162338 
z"/>
<path fill="#FFFFFF" opacity="1.000000" stroke="none" 
	d="
M252.081711,121.225632 
	C253.272217,119.803528 254.464737,118.784637 255.657257,117.765755 
	C255.997101,118.261414 256.336945,118.757080 256.676819,119.252747 
	C255.145782,120.044785 253.614761,120.836815 252.081711,121.225632 
z"/>
<path fill="#FFFFFF" opacity="1.000000" stroke="none" 
	d="
M250.958618,49.298233 
	C251.378204,49.558289 251.493835,50.001915 251.609467,50.445541 
	C251.291199,50.124294 250.972931,49.803051 250.958618,49.298233 
z"/>
<path fill="#FFFFFF" opacity="1.000000" stroke="none" 
	d="
M809.000000,219.308395 
	C809.633179,231.356125 808.437439,242.304398 801.402100,252.311722 
	C789.923096,268.639893 767.337097,268.416107 756.051880,252.041977 
	C744.381653,235.109299 745.580322,212.379440 758.603821,196.173859 
	C762.369263,191.488449 768.011841,188.844498 774.537476,187.859726 
	C793.307312,185.027222 804.738647,199.206329 808.000366,214.142624 
	C808.341919,215.707016 808.667175,217.274994 809.000000,219.308395 
z"/>
<path fill="#FFFFFF" opacity="1.000000" stroke="none" 
	d="
M1331.240723,213.569672 
	C1330.878052,214.644516 1330.312378,215.909805 1329.738770,215.913422 
	C1312.959961,216.019043 1296.180298,215.998932 1279.402100,215.998932 
	C1279.425537,201.879196 1290.149780,188.305908 1302.822876,186.996674 
	C1320.897949,185.129395 1330.965820,197.608765 1331.240723,213.569672 
z"/>
<path fill="#FFFFFF" opacity="1.000000" stroke="none" 
	d="
M1206.999634,216.000000 
	C1195.873291,216.000000 1185.246826,216.000000 1174.641113,216.000000 
	C1173.485718,205.476425 1182.440674,190.088501 1195.597534,187.297623 
	C1204.011475,185.512833 1212.458252,187.020447 1218.715210,193.428009 
	C1224.556641,199.409912 1226.253418,207.417282 1226.601685,216.000000 
	C1220.404663,216.000000 1213.952026,216.000000 1206.999634,216.000000 
z"/>
<path fill="#C2F900" opacity="1.000000" stroke="none" 
	d="
M268.995850,307.804382 
	C267.816223,309.456451 266.638000,310.673462 265.459808,311.890503 
	C264.640686,310.475128 263.120850,309.065857 263.108521,307.643524 
	C262.948334,289.150208 262.961731,270.654877 263.062103,252.160721 
	C263.072510,250.244873 263.920746,248.333557 264.449493,246.131577 
	C263.480225,244.715775 261.880219,243.140091 261.189270,241.234726 
	C258.508209,233.841370 252.524139,229.911758 246.299271,226.033127 
	C244.688858,225.029709 243.674942,223.068970 242.387024,221.547974 
	C244.353958,221.047546 246.418579,219.926254 248.261185,220.216110 
	C250.219803,220.524231 252.029953,222.076385 253.797852,223.247025 
	C263.919434,229.949188 267.948578,239.764130 267.988007,251.516541 
	C268.037750,266.345459 267.933960,281.175140 268.045624,296.003387 
	C268.074127,299.794220 268.664886,303.580811 268.995850,307.804382 
z"/>
<path fill="#C2F900" opacity="1.000000" stroke="none" 
	d="
M203.000000,263.029358 
	C202.684174,258.417511 202.145889,254.300186 202.147644,250.183105 
	C202.148499,248.165100 203.152191,246.147552 203.702026,244.129791 
	C204.400223,244.145798 205.098419,244.161804 205.796616,244.177811 
	C206.175934,246.243011 206.904587,248.312485 206.879486,250.372772 
	C206.671082,267.473328 206.268845,284.571594 206.094482,301.672302 
	C206.075089,303.574463 207.359726,305.461792 207.562347,307.405701 
	C207.671814,308.455780 206.770416,309.611267 206.325089,310.719208 
	C205.242691,310.187531 203.897858,309.889862 203.154297,309.056030 
	C202.460571,308.278076 202.097885,306.925171 202.116425,305.834259 
	C202.356033,291.729919 202.689926,277.627136 203.000000,263.029358 
z"/>
<path fill="#C2F900" opacity="1.000000" stroke="none" 
	d="
M206.286682,235.958984 
	C210.340149,225.035889 223.897263,216.587753 233.726364,218.088562 
	C235.190765,218.312149 236.479187,219.688324 237.849030,220.531296 
	C236.459473,221.353760 235.154114,222.659546 233.666428,222.918716 
	C225.225342,224.389282 218.270798,228.133560 212.912430,234.969482 
	C211.375961,236.929642 209.657196,241.857056 206.286682,235.958984 
z"/>
<path fill="#C2F900" opacity="1.000000" stroke="none" 
	d="
M206.573517,241.568604 
	C206.066391,241.892532 205.670319,241.965225 205.274246,242.037903 
	C205.454819,241.505722 205.635391,240.973572 205.815979,240.441406 
	C206.105515,240.733398 206.395050,241.025391 206.573517,241.568604 
z"/>
</svg>