<svg version="1.1" id="Layer_1" xmlns="http://www.w3.org/2000/svg" xmlns:xlink="http://www.w3.org/1999/xlink" x="0px" y="0px"
	 width="100%" viewBox="0 0 1371 411" enable-background="new 0 0 1371 411" xml:space="preserve">
<path fill="#FFFFFF" opacity="1.000000" stroke="none" 
	d="
M888.000000,412.000000 
	C592.000000,412.000000 296.500031,412.000000 1.000040,412.000000 
	C1.000026,275.000031 1.000026,138.000046 1.000013,1.000058 
	C457.999969,1.000039 914.999939,1.000039 1372.000000,1.000019 
	C1372.000000,137.999939 1372.000000,274.999878 1372.000000,411.999908 
	C1210.833374,412.000000 1049.666626,412.000000 888.000000,412.000000 
M219.927444,233.775299 
	C217.951584,238.509262 214.379807,243.205811 214.267807,247.983475 
	C213.690353,272.618652 214.045242,297.274841 213.952759,321.923187 
	C213.938248,325.788788 215.223633,328.491821 219.162247,328.906677 
	C222.443405,329.252258 225.993057,325.438354 225.977524,321.906219 
	C225.876602,298.956329 225.759308,276.006195 225.530090,253.057343 
	C225.477737,247.813004 229.593842,242.086990 234.550110,241.165619 
	C238.123428,240.501328 243.936035,245.412399 244.899887,250.057953 
	C245.165543,251.338272 244.996933,252.712433 244.997162,254.043533 
	C245.000916,276.360626 244.998062,298.677734 245.001144,320.994812 
	C245.001862,326.199921 246.979645,328.886230 250.861801,328.987335 
	C254.882614,329.092072 256.998810,326.265961 256.999268,320.771576 
	C257.001160,297.788300 256.830597,274.803162 257.085022,251.822708 
	C257.184235,242.860550 253.813461,236.131409 246.177826,231.808136 
	C238.449295,227.432251 230.596786,227.931793 222.919815,232.412186 
	C221.867874,233.026154 220.402878,232.932419 219.784943,232.733612 
	C228.563141,224.368469 242.124191,224.410339 251.224335,232.686401 
	C257.181641,238.104187 259.848114,244.995499 259.933990,252.757645 
	C260.138489,271.248016 259.996887,289.742157 260.001892,308.234772 
	C260.003235,313.203705 262.326080,316.140442 266.103790,315.989105 
	C269.023865,315.872131 271.985992,311.948517 271.993378,308.085938 
	C272.013123,297.756744 272.128845,287.425476 271.965637,277.098846 
	C271.785126,265.675262 272.537750,254.064377 270.752502,242.875122 
	C267.188141,220.535553 243.319489,208.694702 223.120834,216.199402 
	C216.901657,218.510101 211.635254,223.385193 205.351440,226.476074 
	C207.569061,224.146637 209.551529,221.519852 212.049210,219.544525 
	C219.037903,214.017441 227.397964,210.454559 236.020477,211.248978 
	C260.341522,213.489807 275.008331,231.170090 275.001373,254.221069 
	C274.994751,276.219757 275.060455,298.218781 274.948181,320.216888 
	C274.926117,324.534180 276.646942,326.277191 280.890564,326.030090 
	C285.215912,325.778259 286.996887,323.692413 286.997345,318.371368 
	C287.001831,264.207886 287.000061,210.044434 286.999939,155.880966 
	C286.999908,155.047684 287.093353,154.201324 286.980988,153.383347 
	C286.435669,149.413345 284.037354,147.921036 280.140839,147.950531 
	C276.233429,147.980133 274.883881,149.859436 274.968597,153.531235 
	C275.091553,158.861420 274.999939,164.196533 274.999939,169.529556 
	C274.999908,185.093216 274.999939,200.656876 274.999939,216.220551 
	C272.990509,214.213058 271.159088,211.941879 271.134033,209.650955 
	C270.909851,189.154633 270.932404,168.654358 271.061554,148.156403 
	C271.089111,143.790131 275.628296,138.448517 278.989563,138.004990 
	C283.736816,137.378571 288.617828,140.224747 289.783173,144.703751 
	C290.517365,147.525665 290.946991,150.512482 290.950806,153.426041 
	C291.018616,205.089554 291.023438,256.753235 290.954681,308.416748 
	C290.949280,312.489227 291.644196,315.135864 296.589600,315.082458 
	C301.193573,315.032776 302.047058,312.670135 302.042603,308.739288 
	C301.979950,253.575958 302.015106,198.412537 301.940887,143.249222 
	C301.938141,141.201202 301.587799,138.810089 300.505768,137.167603 
	C296.230042,130.677261 291.108002,126.317192 282.311188,125.718040 
	C268.455139,124.774300 258.287231,135.661972 258.825653,149.529938 
	C259.534821,167.795776 258.999939,186.109909 258.999939,204.403259 
	C258.533386,204.514832 258.066803,204.626389 257.600250,204.737961 
	C257.066864,202.778580 256.086121,200.822723 256.070709,198.859283 
	C255.945175,182.861206 255.947327,166.861404 256.045898,150.862961 
	C256.064911,147.774673 256.211395,144.548813 257.098572,141.629379 
	C260.148834,131.592209 267.684753,124.410965 278.139709,123.067230 
	C287.867676,121.816917 298.143738,127.230225 301.863678,136.293564 
	C304.161011,141.890839 305.793823,148.211304 305.826355,154.217361 
	C306.122131,208.879196 305.999908,263.543274 306.000092,318.206726 
	C306.000092,319.373322 305.550140,320.855560 306.098022,321.640930 
	C307.246368,323.287048 308.744476,325.509552 310.411438,325.820465 
	C315.520142,326.773468 316.995850,325.086548 316.996429,319.449554 
	C317.002319,261.286316 316.824066,203.122284 317.091522,144.960297 
	C317.190704,123.385094 295.047699,105.647537 271.573181,111.943466 
	C266.525848,113.297180 261.772278,115.746033 256.883362,117.690407 
	C256.487457,117.275826 256.091522,116.861244 255.695602,116.446663 
	C256.729584,115.979996 257.834320,115.626190 258.786469,115.029060 
	C267.657928,109.465424 276.891327,106.798134 287.635315,108.857132 
	C306.241699,112.422897 319.980316,129.094391 319.989929,147.253922 
	C320.018097,200.584091 319.998413,253.914291 320.002258,307.244476 
	C320.002655,312.914520 321.767151,314.837585 326.482544,315.040558 
	C332.460632,315.297852 332.019257,311.310547 332.016418,307.344177 
	C331.989136,269.179749 332.000061,231.015350 332.000061,192.850937 
	C332.000061,191.110977 332.000061,189.371017 332.000061,187.631058 
	C332.582275,187.503052 333.164459,187.375046 333.746674,187.247040 
	C334.497742,190.003494 335.891724,192.757401 335.902710,195.516785 
	C336.048309,232.180695 335.999878,268.845398 335.999939,305.509888 
	C335.999939,310.676239 336.044159,315.843140 335.984528,321.008789 
	C335.947052,324.253174 337.303986,325.878815 340.680939,326.036102 
	C346.749176,326.318726 347.997101,325.253784 347.997742,319.143890 
	C348.002167,276.646393 347.994324,234.148911 348.007080,191.651428 
	C348.008759,186.110336 346.201324,181.276764 342.039215,177.633652 
	C339.012970,174.984756 335.586578,172.793015 331.947662,170.109146 
	C333.144897,170.181381 333.981567,170.055161 334.688599,170.301254 
	C344.046448,173.558380 350.717896,182.590073 350.939240,194.256989 
	C351.198456,207.917938 350.999939,221.587555 350.999939,235.253418 
	C350.999969,259.751984 351.062927,284.250824 350.941376,308.748779 
	C350.919708,313.114624 352.248871,315.345673 356.922913,315.033142 
	C361.564941,314.722748 363.036774,312.144165 363.030701,307.839417 
	C362.977722,270.175018 362.549561,232.502762 363.200684,194.849579 
	C363.501068,177.478714 351.382141,159.873611 334.104309,156.880539 
	C333.272522,156.736465 332.611572,155.606293 331.871033,154.935333 
	C332.134277,154.451523 332.397522,153.967728 332.660767,153.483932 
	C337.587494,155.642990 342.885559,157.218521 347.370209,160.072296 
	C360.012390,168.117050 365.806488,180.407562 365.902405,194.990204 
	C366.178650,236.985901 365.998962,278.984589 366.001190,320.982117 
	C366.001465,326.197937 367.973389,328.882507 371.856812,328.987335 
	C375.879669,329.095978 377.999084,326.267212 377.999268,320.768555 
	C378.000732,278.771027 377.979340,236.773499 378.013214,194.776001 
	C378.022827,182.846848 375.252502,171.760696 367.993195,162.147812 
	C359.790009,151.285065 349.298767,143.959412 335.500885,141.885071 
	C334.212372,141.691360 332.477814,140.124390 332.106995,138.856689 
	C329.251526,129.095566 326.035522,119.718361 318.711090,112.048630 
	C309.985687,102.911835 299.317963,97.975426 287.000061,95.653023 
	C287.000061,85.060730 287.384674,74.725929 286.906952,64.431137 
	C286.244659,50.158569 281.023041,37.523090 270.254333,27.929922 
	C259.572052,18.413706 246.933075,14.057533 232.333649,14.896954 
	C213.303909,15.991100 199.237000,24.926922 190.185516,41.185509 
	C186.424316,47.941517 184.887100,55.935661 182.289352,63.510269 
	C182.579941,63.631138 181.855087,63.323151 181.125381,63.027100 
	C169.485901,58.304798 157.589890,57.117821 145.334137,60.298683 
	C132.398560,63.655987 122.315544,70.900566 115.334190,82.302818 
	C110.937950,89.482948 107.967651,97.152809 107.989197,105.761406 
	C108.027153,120.927086 107.961746,136.093109 108.033546,151.258530 
	C108.046959,154.091599 107.670242,155.684830 104.170555,156.214432 
	C99.931503,156.855896 95.714348,158.368027 91.776497,160.143768 
	C77.486633,166.587677 67.913010,177.559814 64.192848,192.661011 
	C62.054058,201.342972 62.063744,210.554214 61.053810,220.019012 
	C48.405258,221.833420 37.257572,227.664490 28.397018,237.985291 
	C22.239040,245.158066 17.884108,253.512238 17.301268,262.505768 
	C16.247248,278.769806 16.892719,295.153076 17.183613,311.480255 
	C17.210833,313.008026 19.561890,315.461334 21.194614,315.813660 
	C26.249922,316.904510 27.808998,315.067993 28.028212,309.673645 
	C28.710501,292.884064 25.873314,275.878693 30.995104,259.357178 
	C35.106750,246.094055 46.295609,236.375320 59.640305,233.068466 
	C60.322296,232.899490 61.196686,233.506943 62.820648,234.015900 
	C58.755188,235.581558 55.581547,236.724884 52.469578,238.016769 
	C42.463589,242.170609 32.350449,253.712372 32.115288,264.944519 
	C31.703741,284.601379 32.031879,304.273193 31.974096,323.938507 
	C31.962416,327.913574 34.006584,329.036835 37.610344,329.054474 
	C41.391560,329.072998 43.058273,327.535522 43.029930,323.717163 
	C42.945812,312.385101 42.879696,301.050323 43.042942,289.720001 
	C43.149960,282.292572 43.032764,274.772919 44.162453,267.471954 
	C45.542625,258.552124 51.847168,250.532104 62.051662,248.926758 
	C60.732979,250.182892 59.191124,251.114944 57.663357,252.069534 
	C51.217674,256.096924 46.613579,260.941223 46.886887,269.475769 
	C47.313404,282.794678 47.084049,296.138092 46.949635,309.469269 
	C46.908104,313.588837 47.740993,316.146088 52.642792,316.081726 
	C57.280804,316.020782 58.088451,313.577057 58.043568,309.685852 
	C57.918633,298.854584 57.798420,288.015228 58.106007,277.191254 
	C58.218857,273.220184 59.537617,269.283325 60.306290,265.330872 
	C60.870792,265.427582 61.435299,265.524292 61.999802,265.621002 
	C61.999802,267.203003 61.999798,268.785004 61.999798,270.367004 
	C61.999805,287.532654 61.988987,304.698303 62.006500,321.863953 
	C62.011692,326.953430 63.979912,328.879852 68.602386,329.041443 
	C73.695343,329.219482 74.043129,326.138306 74.036812,322.224518 
	C73.975754,284.393524 74.013672,246.562393 73.994431,208.731293 
	C73.984940,190.068008 86.529427,173.029541 104.826523,168.696732 
	C105.719696,168.485245 106.750816,168.856339 107.717705,168.956146 
	C105.026314,171.056778 102.199799,171.718201 99.598824,172.883179 
	C84.866203,179.481934 76.988739,190.679031 76.996529,207.070908 
	C77.008888,233.069366 76.999802,259.067810 76.999840,285.066284 
	C76.999855,293.565796 77.071335,302.066162 76.967285,310.564392 
	C76.921623,314.293610 78.389099,316.027863 82.238251,316.043518 
	C88.051773,316.067139 88.993362,315.327515 88.995102,309.588074 
	C89.005386,275.756744 88.996155,241.925415 89.002563,208.094086 
	C89.004562,197.508408 94.954208,188.613251 104.687622,184.771851 
	C105.552452,184.430527 106.668800,184.726532 107.668335,184.726532 
	C106.642754,186.120728 105.599472,186.574051 104.542831,186.993744 
	C97.245171,189.892395 91.999985,197.494659 91.999931,205.188095 
	C91.999695,244.352448 91.994881,283.516785 92.005447,322.681152 
	C92.006950,328.252350 94.748909,330.550781 99.830856,328.892487 
	C103.258102,327.774170 104.078300,324.969269 104.067841,321.407166 
	C103.958252,284.076385 103.946732,246.744919 104.099480,209.414429 
	C104.112000,206.354691 105.528511,203.300720 106.292656,200.244064 
	C106.861679,200.379684 107.430695,200.515320 107.999718,200.650940 
	C107.999718,201.594193 107.999725,202.537430 107.999725,203.480667 
	C107.999771,238.645248 108.013924,273.809875 107.973518,308.974396 
	C107.970222,311.838196 108.176521,314.549835 111.653259,314.919434 
	C114.961922,315.271210 118.737404,315.584534 119.041183,310.693451 
	C119.258354,307.196869 119.004303,303.672577 119.003998,300.160645 
	C118.998741,238.497620 118.979507,176.834595 119.046906,115.171638 
	C119.051376,111.075882 119.204964,106.845558 120.224960,102.921028 
	C121.402420,98.390656 123.618546,94.130234 125.383667,89.752586 
	C125.837311,89.917229 126.290955,90.081863 126.744598,90.246498 
	C126.471321,91.556099 126.175438,92.861465 125.928757,94.176056 
	C124.944130,99.423088 123.140167,104.670746 123.126007,109.922180 
	C122.937210,179.917526 122.999794,249.913559 122.999977,319.909424 
	C122.999985,321.242676 122.883331,322.588806 123.025925,323.906799 
	C123.474274,328.050995 127.142593,329.794067 130.911377,328.068024 
	C134.259918,326.534454 134.016327,323.837189 134.015503,320.979584 
	C133.995773,252.316986 133.946289,183.654282 134.071930,114.991898 
	C134.086746,106.893944 135.470993,98.946037 142.696442,93.711250 
	C142.823441,93.833176 142.950424,93.955093 142.995773,94.791809 
	C138.053146,100.430290 136.925018,107.170990 136.961273,114.407173 
	C137.068970,135.902008 136.999863,157.397720 136.999863,178.893097 
	C136.999863,221.550583 136.994827,264.208069 137.006302,306.865540 
	C137.007721,312.181366 139.928207,315.956757 143.958466,315.987793 
	C148.087341,316.019592 149.999832,313.230072 149.999908,307.169128 
	C150.000336,264.678284 149.925430,222.187134 150.089233,179.696930 
	C150.111145,174.015182 150.831604,168.215561 152.163040,162.695923 
	C153.320328,157.898300 154.891464,152.869431 159.809540,149.393204 
	C159.809540,150.472382 160.004517,151.084427 159.780945,151.398544 
	C154.522964,158.785950 152.907074,167.137146 152.977936,176.015015 
	C153.068375,187.345184 152.999863,198.676636 152.999863,210.007523 
	C152.999863,247.166183 152.972305,284.324951 153.077866,321.483307 
	C153.083389,323.426086 153.654709,326.201019 154.974686,327.096069 
	C156.638916,328.224640 159.424667,328.309601 161.582245,327.958282 
	C164.876999,327.421875 165.037247,324.626740 165.034409,321.770416 
	C164.986526,273.447510 165.072723,225.124405 164.946533,176.801788 
	C164.916840,165.434494 169.351257,156.828613 179.270950,151.371521 
	C193.528275,143.528168 212.355133,154.786774 213.810104,169.857452 
	C214.798294,180.093185 214.061462,190.502289 213.923737,200.831558 
	C213.905594,202.191864 212.864182,203.538544 212.296707,204.891525 
	C211.864517,204.751266 211.432327,204.611008 211.000137,204.470749 
	C211.000137,193.315735 211.017471,182.160675 210.981094,171.005798 
	C210.975754,169.368881 210.901581,167.690536 210.541901,166.103271 
	C208.492676,157.060089 195.703430,148.544174 182.920166,152.368317 
	C174.208801,154.974335 168.033844,164.119980 168.027740,169.933365 
	C167.978790,216.589935 167.968307,263.246704 168.129166,309.902740 
	C168.134964,311.587524 169.640610,314.022491 171.132126,314.808899 
	C176.130661,317.444366 179.991898,314.679382 179.993530,308.812469 
	C180.005707,265.155212 180.000031,221.497925 180.000626,177.840652 
	C180.000641,176.507660 179.777115,175.125259 180.050034,173.849838 
	C181.585220,166.675766 185.123184,163.586761 189.526291,163.922440 
	C194.174484,164.276810 198.728394,167.376816 198.914856,171.700806 
	C199.450439,184.120163 199.803040,196.552963 199.860504,208.982193 
	C199.870773,211.204712 198.126709,213.435349 197.192673,215.662231 
	C195.999802,203.455627 196.170975,191.789078 195.836716,180.137039 
	C195.778854,178.119751 194.011032,175.354126 192.245560,174.415771 
	C190.601212,173.541763 187.160522,173.853409 185.867096,175.077011 
	C184.303848,176.555817 183.818787,179.499374 183.516312,181.891113 
	C183.234604,184.118683 183.973160,186.453857 183.974930,188.741867 
	C184.008652,232.565750 183.999832,276.389648 184.000000,320.213562 
	C184.000000,321.379974 183.574249,322.805664 184.091583,323.659149 
	C185.188324,325.468414 186.494949,327.593719 188.259857,328.404358 
	C189.510300,328.978668 192.440979,328.147278 193.226959,326.993347 
	C194.688690,324.847351 195.864334,322.014160 195.885880,319.456329 
	C196.080994,296.296295 196.043564,273.133820 195.975479,249.972336 
	C195.953079,242.353058 199.069565,235.765259 202.451523,229.278214 
	C203.018723,228.190262 204.800385,227.735474 205.988586,227.715942 
	C203.660675,233.205521 199.519104,238.631531 199.324051,244.195892 
	C198.548355,266.322998 198.922272,288.494263 199.188705,310.645325 
	C199.206345,312.111816 201.692932,314.494568 203.350433,314.818817 
	C208.410492,315.808594 210.986557,313.233063 210.992172,307.950714 
	C211.012543,288.794739 211.077957,269.638306 210.960327,250.483078 
	C210.915863,243.242020 213.977051,237.684769 219.927444,233.775299 
M192.343018,379.900818 
	C188.300797,381.282715 184.165955,382.453308 180.266907,384.161957 
	C178.915375,384.754181 178.148773,386.681213 177.115021,387.998596 
	C178.485779,388.996490 179.786667,390.121063 181.259735,390.933502 
	C181.899567,391.286438 182.893478,390.999695 183.726562,390.999695 
	C215.551041,391.000061 247.375534,391.000244 279.200012,390.998932 
	C280.199554,390.998901 281.422577,391.345734 282.151031,390.897064 
	C283.561127,390.028595 285.257904,388.892609 285.712738,387.500549 
	C285.957855,386.750305 284.104340,384.754547 282.810760,384.153351 
	C275.090759,380.565582 267.282257,377.163727 259.453125,373.817230 
	C255.347870,372.062469 253.791794,368.817047 254.047882,364.707367 
	C254.467255,357.977173 255.034943,351.247650 255.835800,344.553192 
	C256.302246,340.653961 253.401566,336.117310 249.523071,336.054169 
	C240.194824,335.902283 230.860062,335.881531 221.532730,336.059113 
	C217.122360,336.143066 214.482086,338.807281 214.051514,343.178070 
	C213.533615,348.435425 213.867081,353.831482 212.832260,358.966034 
	C211.972183,363.233612 213.786362,368.732330 208.773056,371.531464 
	C203.637146,374.399017 198.274002,376.859589 192.343018,379.900818 
M229.000000,294.497986 
	C229.000671,299.487061 228.871262,304.480621 229.041779,309.463867 
	C229.187195,313.713257 232.427612,315.687225 235.897171,315.805084 
	C239.508591,315.927826 241.047470,313.092987 241.031967,309.391846 
	C240.959610,292.096649 241.025238,274.800812 240.951218,257.505646 
	C240.945358,256.133057 240.666611,254.038116 239.792938,253.536850 
	C237.690918,252.330872 234.506409,250.621902 232.966827,251.426849 
	C231.018448,252.445526 229.247833,255.722382 229.172562,258.081818 
	C228.796295,269.877350 229.000137,281.691345 229.000000,294.497986 
z"/>
<path fill="#C2F900" opacity="1.000000" stroke="none" 
	d="
M206.020889,226.988129 
	C204.800385,227.735474 203.018723,228.190262 202.451523,229.278214 
	C199.069565,235.765259 195.953079,242.353058 195.975479,249.972336 
	C196.043564,273.133820 196.080994,296.296295 195.885880,319.456329 
	C195.864334,322.014160 194.688690,324.847351 193.226959,326.993347 
	C192.440979,328.147278 189.510300,328.978668 188.259857,328.404358 
	C186.494949,327.593719 185.188324,325.468414 184.091583,323.659149 
	C183.574249,322.805664 184.000000,321.379974 184.000000,320.213562 
	C183.999832,276.389648 184.008652,232.565750 183.974930,188.741867 
	C183.973160,186.453857 183.234604,184.118683 183.516312,181.891113 
	C183.818787,179.499374 184.303848,176.555817 185.867096,175.077011 
	C187.160522,173.853409 190.601212,173.541763 192.245560,174.415771 
	C194.011032,175.354126 195.778854,178.119751 195.836716,180.137039 
	C196.170975,191.789078 195.999802,203.455627 197.192673,215.662231 
	C198.126709,213.435349 199.870773,211.204712 199.860504,208.982193 
	C199.803040,196.552963 199.450439,184.120163 198.914856,171.700806 
	C198.728394,167.376816 194.174484,164.276810 189.526291,163.922440 
	C185.123184,163.586761 181.585220,166.675766 180.050034,173.849838 
	C179.777115,175.125259 180.000641,176.507660 180.000626,177.840652 
	C180.000031,221.497925 180.005707,265.155212 179.993530,308.812469 
	C179.991898,314.679382 176.130661,317.444366 171.132126,314.808899 
	C169.640610,314.022491 168.134964,311.587524 168.129166,309.902740 
	C167.968307,263.246704 167.978790,216.589935 168.027740,169.933365 
	C168.033844,164.119980 174.208801,154.974335 182.920166,152.368317 
	C195.703430,148.544174 208.492676,157.060089 210.541901,166.103271 
	C210.901581,167.690536 210.975754,169.368881 210.981094,171.005798 
	C211.017471,182.160675 211.000137,193.315735 211.000137,204.470749 
	C211.432327,204.611008 211.864517,204.751266 212.296707,204.891525 
	C212.864182,203.538544 213.905594,202.191864 213.923737,200.831558 
	C214.061462,190.502289 214.798294,180.093185 213.810104,169.857452 
	C212.355133,154.786774 193.528275,143.528168 179.270950,151.371521 
	C169.351257,156.828613 164.916840,165.434494 164.946533,176.801788 
	C165.072723,225.124405 164.986526,273.447510 165.034409,321.770416 
	C165.037247,324.626740 164.876999,327.421875 161.582245,327.958282 
	C159.424667,328.309601 156.638916,328.224640 154.974686,327.096069 
	C153.654709,326.201019 153.083389,323.426086 153.077866,321.483307 
	C152.972305,284.324951 152.999863,247.166183 152.999863,210.007523 
	C152.999863,198.676636 153.068375,187.345184 152.977936,176.015015 
	C152.907074,167.137146 154.522964,158.785950 159.780945,151.398544 
	C160.004517,151.084427 159.809540,150.472382 159.809540,149.393204 
	C154.891464,152.869431 153.320328,157.898300 152.163040,162.695923 
	C150.831604,168.215561 150.111145,174.015182 150.089233,179.696930 
	C149.925430,222.187134 150.000336,264.678284 149.999908,307.169128 
	C149.999832,313.230072 148.087341,316.019592 143.958466,315.987793 
	C139.928207,315.956757 137.007721,312.181366 137.006302,306.865540 
	C136.994827,264.208069 136.999863,221.550583 136.999863,178.893097 
	C136.999863,157.397720 137.068970,135.902008 136.961273,114.407173 
	C136.925018,107.170990 138.053146,100.430290 143.394104,94.393600 
	C153.571320,86.176598 163.821259,87.632454 175.064713,93.470680 
	C166.970062,83.418167 151.485107,82.356010 142.366455,93.298920 
	C135.470993,98.946037 134.086746,106.893944 134.071930,114.991898 
	C133.946289,183.654282 133.995773,252.316986 134.015503,320.979584 
	C134.016327,323.837189 134.259918,326.534454 130.911377,328.068024 
	C127.142593,329.794067 123.474274,328.050995 123.025925,323.906799 
	C122.883331,322.588806 122.999985,321.242676 122.999977,319.909424 
	C122.999794,249.913559 122.937210,179.917526 123.126007,109.922180 
	C123.140167,104.670746 124.944130,99.423088 125.928757,94.176056 
	C126.175438,92.861465 126.471321,91.556099 126.744598,90.246498 
	C126.290955,90.081863 125.837311,89.917229 125.383667,89.752586 
	C123.618546,94.130234 121.402420,98.390656 120.224960,102.921028 
	C119.204964,106.845558 119.051376,111.075882 119.046906,115.171638 
	C118.979507,176.834595 118.998741,238.497620 119.003998,300.160645 
	C119.004303,303.672577 119.258354,307.196869 119.041183,310.693451 
	C118.737404,315.584534 114.961922,315.271210 111.653259,314.919434 
	C108.176521,314.549835 107.970222,311.838196 107.973518,308.974396 
	C108.013924,273.809875 107.999771,238.645248 107.999725,203.480667 
	C107.999725,202.537430 107.999718,201.594193 107.999718,200.650940 
	C107.430695,200.515320 106.861679,200.379684 106.292656,200.244064 
	C105.528511,203.300720 104.112000,206.354691 104.099480,209.414429 
	C103.946732,246.744919 103.958252,284.076385 104.067841,321.407166 
	C104.078300,324.969269 103.258102,327.774170 99.830856,328.892487 
	C94.748909,330.550781 92.006950,328.252350 92.005447,322.681152 
	C91.994881,283.516785 91.999695,244.352448 91.999931,205.188095 
	C91.999985,197.494659 97.245171,189.892395 104.542831,186.993744 
	C105.599472,186.574051 106.642754,186.120728 107.668335,184.726532 
	C106.668800,184.726532 105.552452,184.430527 104.687622,184.771851 
	C94.954208,188.613251 89.004562,197.508408 89.002563,208.094086 
	C88.996155,241.925415 89.005386,275.756744 88.995102,309.588074 
	C88.993362,315.327515 88.051773,316.067139 82.238251,316.043518 
	C78.389099,316.027863 76.921623,314.293610 76.967285,310.564392 
	C77.071335,302.066162 76.999855,293.565796 76.999840,285.066284 
	C76.999802,259.067810 77.008888,233.069366 76.996529,207.070908 
	C76.988739,190.679031 84.866203,179.481934 99.598824,172.883179 
	C102.199799,171.718201 105.026314,171.056778 107.717705,168.956146 
	C106.750816,168.856339 105.719696,168.485245 104.826523,168.696732 
	C86.529427,173.029541 73.984940,190.068008 73.994431,208.731293 
	C74.013672,246.562393 73.975754,284.393524 74.036812,322.224518 
	C74.043129,326.138306 73.695343,329.219482 68.602386,329.041443 
	C63.979912,328.879852 62.011692,326.953430 62.006500,321.863953 
	C61.988987,304.698303 61.999805,287.532654 61.999798,270.367004 
	C61.999798,268.785004 61.999802,267.203003 61.999802,265.621002 
	C61.435299,265.524292 60.870792,265.427582 60.306290,265.330872 
	C59.537617,269.283325 58.218857,273.220184 58.106007,277.191254 
	C57.798420,288.015228 57.918633,298.854584 58.043568,309.685852 
	C58.088451,313.577057 57.280804,316.020782 52.642792,316.081726 
	C47.740993,316.146088 46.908104,313.588837 46.949635,309.469269 
	C47.084049,296.138092 47.313404,282.794678 46.886887,269.475769 
	C46.613579,260.941223 51.217674,256.096924 57.663357,252.069534 
	C59.191124,251.114944 60.732979,250.182892 62.051662,248.926758 
	C51.847168,250.532104 45.542625,258.552124 44.162453,267.471954 
	C43.032764,274.772919 43.149960,282.292572 43.042942,289.720001 
	C42.879696,301.050323 42.945812,312.385101 43.029930,323.717163 
	C43.058273,327.535522 41.391560,329.072998 37.610344,329.054474 
	C34.006584,329.036835 31.962416,327.913574 31.974096,323.938507 
	C32.031879,304.273193 31.703741,284.601379 32.115288,264.944519 
	C32.350449,253.712372 42.463589,242.170609 52.469578,238.016769 
	C55.581547,236.724884 58.755188,235.581558 62.820648,234.015900 
	C61.196686,233.506943 60.322296,232.899490 59.640305,233.068466 
	C46.295609,236.375320 35.106750,246.094055 30.995104,259.357178 
	C25.873314,275.878693 28.710501,292.884064 28.028212,309.673645 
	C27.808998,315.067993 26.249922,316.904510 21.194614,315.813660 
	C19.561890,315.461334 17.210833,313.008026 17.183613,311.480255 
	C16.892719,295.153076 16.247248,278.769806 17.301268,262.505768 
	C17.884108,253.512238 22.239040,245.158066 28.397018,237.985291 
	C37.257572,227.664490 48.405258,221.833420 61.053810,220.019012 
	C62.063744,210.554214 62.054058,201.342972 64.192848,192.661011 
	C67.913010,177.559814 77.486633,166.587677 91.776497,160.143768 
	C95.714348,158.368027 99.931503,156.855896 104.170555,156.214432 
	C107.670242,155.684830 108.046959,154.091599 108.033546,151.258530 
	C107.961746,136.093109 108.027153,120.927086 107.989197,105.761406 
	C107.967651,97.152809 110.937950,89.482948 115.334190,82.302818 
	C122.315544,70.900566 132.398560,63.655987 145.334137,60.298683 
	C157.589890,57.117821 169.485901,58.304798 181.125381,63.027100 
	C181.855087,63.323151 182.579941,63.631138 182.289352,63.510269 
	C184.887100,55.935661 186.424316,47.941517 190.185516,41.185509 
	C199.237000,24.926922 213.303909,15.991100 232.333649,14.896954 
	C246.933075,14.057533 259.572052,18.413706 270.254333,27.929922 
	C281.023041,37.523090 286.244659,50.158569 286.906952,64.431137 
	C287.384674,74.725929 287.000061,85.060730 287.000061,95.653023 
	C299.317963,97.975426 309.985687,102.911835 318.711090,112.048630 
	C326.035522,119.718361 329.251526,129.095566 332.106995,138.856689 
	C332.477814,140.124390 334.212372,141.691360 335.500885,141.885071 
	C349.298767,143.959412 359.790009,151.285065 367.993195,162.147812 
	C375.252502,171.760696 378.022827,182.846848 378.013214,194.776001 
	C377.979340,236.773499 378.000732,278.771027 377.999268,320.768555 
	C377.999084,326.267212 375.879669,329.095978 371.856812,328.987335 
	C367.973389,328.882507 366.001465,326.197937 366.001190,320.982117 
	C365.998962,278.984589 366.178650,236.985901 365.902405,194.990204 
	C365.806488,180.407562 360.012390,168.117050 347.370209,160.072296 
	C342.885559,157.218521 337.587494,155.642990 332.660767,153.483932 
	C332.397522,153.967728 332.134277,154.451523 331.871033,154.935333 
	C332.611572,155.606293 333.272522,156.736465 334.104309,156.880539 
	C351.382141,159.873611 363.501068,177.478714 363.200684,194.849579 
	C362.549561,232.502762 362.977722,270.175018 363.030701,307.839417 
	C363.036774,312.144165 361.564941,314.722748 356.922913,315.033142 
	C352.248871,315.345673 350.919708,313.114624 350.941376,308.748779 
	C351.062927,284.250824 350.999969,259.751984 350.999939,235.253418 
	C350.999939,221.587555 351.198456,207.917938 350.939240,194.256989 
	C350.717896,182.590073 344.046448,173.558380 334.688599,170.301254 
	C333.981567,170.055161 333.144897,170.181381 331.947662,170.109146 
	C335.586578,172.793015 339.012970,174.984756 342.039215,177.633652 
	C346.201324,181.276764 348.008759,186.110336 348.007080,191.651428 
	C347.994324,234.148911 348.002167,276.646393 347.997742,319.143890 
	C347.997101,325.253784 346.749176,326.318726 340.680939,326.036102 
	C337.303986,325.878815 335.947052,324.253174 335.984528,321.008789 
	C336.044159,315.843140 335.999939,310.676239 335.999939,305.509888 
	C335.999878,268.845398 336.048309,232.180695 335.902710,195.516785 
	C335.891724,192.757401 334.497742,190.003494 333.746674,187.247040 
	C333.164459,187.375046 332.582275,187.503052 332.000061,187.631058 
	C332.000061,189.371017 332.000061,191.110977 332.000061,192.850937 
	C332.000061,231.015350 331.989136,269.179749 332.016418,307.344177 
	C332.019257,311.310547 332.460632,315.297852 326.482544,315.040558 
	C321.767151,314.837585 320.002655,312.914520 320.002258,307.244476 
	C319.998413,253.914291 320.018097,200.584091 319.989929,147.253922 
	C319.980316,129.094391 306.241699,112.422897 287.635315,108.857132 
	C276.891327,106.798134 267.657928,109.465424 258.786469,115.029060 
	C257.834320,115.626190 256.729584,115.979996 255.695602,116.446663 
	C256.091522,116.861244 256.487457,117.275826 256.883362,117.690407 
	C261.772278,115.746033 266.525848,113.297180 271.573181,111.943466 
	C295.047699,105.647537 317.190704,123.385094 317.091522,144.960297 
	C316.824066,203.122284 317.002319,261.286316 316.996429,319.449554 
	C316.995850,325.086548 315.520142,326.773468 310.411438,325.820465 
	C308.744476,325.509552 307.246368,323.287048 306.098022,321.640930 
	C305.550140,320.855560 306.000092,319.373322 306.000092,318.206726 
	C305.999908,263.543274 306.122131,208.879196 305.826355,154.217361 
	C305.793823,148.211304 304.161011,141.890839 301.863678,136.293564 
	C298.143738,127.230225 287.867676,121.816917 278.139709,123.067230 
	C267.684753,124.410965 260.148834,131.592209 257.098572,141.629379 
	C256.211395,144.548813 256.064911,147.774673 256.045898,150.862961 
	C255.947327,166.861404 255.945175,182.861206 256.070709,198.859283 
	C256.086121,200.822723 257.066864,202.778580 257.600250,204.737961 
	C258.066803,204.626389 258.533386,204.514832 258.999939,204.403259 
	C258.999939,186.109909 259.534821,167.795776 258.825653,149.529938 
	C258.287231,135.661972 268.455139,124.774300 282.311188,125.718040 
	C291.108002,126.317192 296.230042,130.677261 300.505768,137.167603 
	C301.587799,138.810089 301.938141,141.201202 301.940887,143.249222 
	C302.015106,198.412537 301.979950,253.575958 302.042603,308.739288 
	C302.047058,312.670135 301.193573,315.032776 296.589600,315.082458 
	C291.644196,315.135864 290.949280,312.489227 290.954681,308.416748 
	C291.023438,256.753235 291.018616,205.089554 290.950806,153.426041 
	C290.946991,150.512482 290.517365,147.525665 289.783173,144.703751 
	C288.617828,140.224747 283.736816,137.378571 278.989563,138.004990 
	C275.628296,138.448517 271.089111,143.790131 271.061554,148.156403 
	C270.932404,168.654358 270.909851,189.154633 271.134033,209.650955 
	C271.159088,211.941879 272.990509,214.213058 274.999939,216.220551 
	C274.999939,200.656876 274.999908,185.093216 274.999939,169.529556 
	C274.999939,164.196533 275.091553,158.861420 274.968597,153.531235 
	C274.883881,149.859436 276.233429,147.980133 280.140839,147.950531 
	C284.037354,147.921036 286.435669,149.413345 286.980988,153.383347 
	C287.093353,154.201324 286.999908,155.047684 286.999939,155.880966 
	C287.000061,210.044434 287.001831,264.207886 286.997345,318.371368 
	C286.996887,323.692413 285.215912,325.778259 280.890564,326.030090 
	C276.646942,326.277191 274.926117,324.534180 274.948181,320.216888 
	C275.060455,298.218781 274.994751,276.219757 275.001373,254.221069 
	C275.008331,231.170090 260.341522,213.489807 236.020477,211.248978 
	C227.397964,210.454559 219.037903,214.017441 212.049210,219.544525 
	C209.551529,221.519852 207.569061,224.146637 205.662888,226.755493 
	C205.974335,227.034912 206.020889,226.988113 206.020889,226.988129 
M228.999863,96.500000 
	C229.000000,88.667549 228.948624,80.834633 229.020538,73.002838 
	C229.060486,68.652596 231.564346,67.003433 235.736130,66.953804 
	C239.995972,66.903137 241.084854,69.108063 241.041046,72.908310 
	C240.921936,83.239098 240.931000,93.572960 241.049316,103.903763 
	C241.078506,106.452454 241.717575,108.994156 242.076279,111.539070 
	C243.831543,110.411209 244.909485,109.154007 244.920242,107.887733 
	C245.039215,93.890381 245.135162,79.889328 244.911194,65.894501 
	C244.835663,61.175896 238.896088,56.604965 234.278046,57.003860 
	C229.295990,57.434204 225.473709,62.287220 225.791702,67.548004 
	C225.996414,70.934769 225.988647,74.337296 225.991943,77.732834 
	C226.009384,95.730782 225.942429,113.729164 226.071106,131.726212 
	C226.087753,134.053253 227.068405,136.373413 227.602509,138.696762 
	C228.068298,138.596527 228.534073,138.496277 228.999863,138.396042 
	C228.999863,124.764030 228.999863,111.132011 228.999863,96.500000 
M267.093079,47.482048 
	C270.671143,53.197845 272.018921,59.494354 272.004913,66.160309 
	C271.986023,75.147354 271.965149,84.134834 272.055359,93.121017 
	C272.064728,94.054276 272.820068,94.980042 273.229309,95.909279 
	C273.817108,95.162201 274.947235,94.388550 274.912109,93.672012 
	C274.299530,81.174110 276.539764,68.585907 273.068970,56.163345 
	C267.714447,36.998604 248.922180,23.874899 229.282501,27.287170 
	C208.413361,30.913059 193.749390,49.685169 196.073380,71.825836 
	C196.216248,73.186874 197.363770,74.442459 198.043854,75.747108 
	C198.999863,71.458809 198.977020,67.514626 199.003662,63.570774 
	C199.149124,42.032566 220.090195,25.152632 244.315186,30.757811 
	C254.028931,33.005375 261.412720,38.574455 267.093079,47.482048 
M167.964142,107.037422 
	C165.305588,102.541664 161.324844,99.133270 156.308441,101.334190 
	C153.233444,102.683319 149.702591,106.816414 149.412521,109.977875 
	C148.519363,119.712471 149.086945,129.581100 149.086945,139.397644 
	C149.637131,139.516342 150.187317,139.635025 150.737503,139.753708 
	C151.491608,137.476746 152.754913,135.231033 152.896927,132.916504 
	C153.222168,127.615685 153.209991,122.270386 152.935150,116.963844 
	C152.704178,112.504341 155.074158,110.533356 158.898682,110.085526 
	C162.451126,109.669548 164.953125,112.632469 164.992935,116.740883 
	C165.027328,120.289963 165.000076,123.839645 165.000076,127.782799 
	C169.281204,124.405991 170.497757,114.916786 167.964142,107.037422 
M213.999863,94.500000 
	C213.999863,84.175705 213.968536,73.851219 214.032745,63.527332 
	C214.042679,61.928661 214.326736,60.286617 214.762161,58.743088 
	C217.342255,49.596939 229.116211,40.897728 242.312149,45.750404 
	C244.944565,46.718460 247.512573,47.861649 250.110291,48.924084 
	C250.541687,48.416718 250.973083,47.909351 251.404495,47.401985 
	C250.095215,46.661385 248.795715,45.902878 247.475021,45.183205 
	C240.629929,41.453144 233.192764,40.420364 226.224915,43.572254 
	C217.589462,47.478481 211.434113,54.556129 211.161072,64.352356 
	C210.618500,83.820175 210.970840,103.313896 211.062164,122.796410 
	C211.068878,124.231049 211.949142,125.661575 212.423294,127.094017 
	C212.948807,126.979485 213.474335,126.864952 213.999863,126.750427 
	C213.999863,116.333618 213.999863,105.916809 213.999863,94.500000 
M206.466370,137.890182 
	C189.059311,130.907837 163.730560,136.306274 162.485611,147.880768 
	C170.716507,139.922485 180.080444,136.977341 191.229950,136.753433 
	C209.232437,136.391937 227.175613,153.733292 226.079041,171.889328 
	C225.607941,179.689392 225.929291,187.542816 226.059998,195.369156 
	C226.086380,196.949142 226.876602,198.516388 227.314667,200.089508 
	C227.876404,199.973877 228.438126,199.858246 228.999863,199.742615 
	C228.999863,193.964615 229.061096,188.185776 228.981583,182.408859 
	C228.910919,177.275101 229.232239,172.054886 228.419769,167.028137 
	C226.296402,153.890671 218.440735,144.668655 206.466370,137.890182 
M192.941391,90.681389 
	C178.640945,66.455696 147.044678,65.306976 133.673904,82.164436 
	C148.265274,71.838226 163.702118,70.018578 179.057312,79.163750 
	C195.139694,88.742043 197.139587,104.898842 195.855804,122.235771 
	C201.169937,118.591469 198.975815,99.544441 192.941391,90.681389 
M241.000137,181.498077 
	C241.756561,187.584427 239.357925,194.119751 242.378311,199.883942 
	C242.918823,199.829178 243.459335,199.774414 243.999847,199.719635 
	C243.999847,197.913116 243.999832,196.106598 243.999832,194.300079 
	C243.999832,178.487778 243.975418,162.675385 244.033981,146.863297 
	C244.040543,145.092056 244.456863,143.311050 244.789078,141.554611 
	C245.517303,137.704620 246.313492,133.867508 247.081940,130.025131 
	C246.660141,129.927063 246.238358,129.828995 245.816559,129.730927 
	C242.354050,135.279510 241.325424,141.677933 241.103699,148.045731 
	C240.727463,158.851578 241.000183,169.680023 241.000137,181.498077 
M257.000061,67.638321 
	C257.000061,78.561157 257.000061,89.483986 257.000061,100.584198 
	C263.586853,95.719421 260.429810,56.395088 254.064484,52.409878 
	C254.967896,56.802303 255.983978,61.742561 257.000061,67.638321 
M182.992615,105.800728 
	C181.462585,100.882927 180.114517,95.845116 174.651993,92.407608 
	C176.707108,97.085861 178.983398,100.721016 179.859833,104.667084 
	C180.880005,109.260300 180.600250,114.132843 181.055023,118.867790 
	C181.165131,120.014076 181.944397,121.096092 182.415955,122.207657 
	C183.055710,122.040794 183.695465,121.873924 184.335220,121.707062 
	C183.890762,116.692398 183.446320,111.677742 182.992615,105.800728 
M251.582306,124.885025 
	C251.630142,124.181320 251.677963,123.477615 251.725784,122.773911 
	C251.415070,122.634636 251.104370,122.495354 250.793655,122.356071 
	C249.387085,124.455925 247.980530,126.555771 246.573959,128.655624 
	C246.940216,128.915802 247.306458,129.175980 247.672714,129.436157 
	C248.794266,128.103989 249.915817,126.771828 251.582306,124.885025 
M254.842255,118.077309 
	C253.818253,119.270142 252.794266,120.462975 251.770264,121.655807 
	C252.265472,121.997353 252.760666,122.338905 253.255859,122.680450 
	C254.055557,121.143326 254.855240,119.606194 254.842255,118.077309 
z"/>
<path fill="#D0AC6E" opacity="1.000000" stroke="none" 
	d="
M192.676666,379.699554 
	C198.274002,376.859589 203.637146,374.399017 208.773056,371.531464 
	C213.786362,368.732330 211.972183,363.233612 212.832260,358.966034 
	C213.867081,353.831482 213.533615,348.435425 214.051514,343.178070 
	C214.482086,338.807281 217.122360,336.143066 221.532730,336.059113 
	C230.860062,335.881531 240.194824,335.902283 249.523071,336.054169 
	C253.401566,336.117310 256.302246,340.653961 255.835800,344.553192 
	C255.034943,351.247650 254.467255,357.977173 254.047882,364.707367 
	C253.791794,368.817047 255.347870,372.062469 259.453125,373.817230 
	C267.282257,377.163727 275.090759,380.565582 282.810760,384.153351 
	C284.104340,384.754547 285.957855,386.750305 285.712738,387.500549 
	C285.257904,388.892609 283.561127,390.028595 282.151031,390.897064 
	C281.422577,391.345734 280.199554,390.998901 279.200012,390.998932 
	C247.375534,391.000244 215.551041,391.000061 183.726562,390.999695 
	C182.893478,390.999695 181.899567,391.286438 181.259735,390.933502 
	C179.786667,390.121063 178.485779,388.996490 177.115021,387.998596 
	C178.148773,386.681213 178.915375,384.754181 180.266907,384.161957 
	C184.165955,382.453308 188.300797,381.282715 192.676666,379.699554 
z"/>
<path fill="#C2F900" opacity="1.000000" stroke="none" 
	d="
M205.953461,227.060486 
	C211.635254,223.385193 216.901657,218.510101 223.120834,216.199402 
	C243.319489,208.694702 267.188141,220.535553 270.752502,242.875122 
	C272.537750,254.064377 271.785126,265.675262 271.965637,277.098846 
	C272.128845,287.425476 272.013123,297.756744 271.993378,308.085938 
	C271.985992,311.948517 269.023865,315.872131 266.103790,315.989105 
	C262.326080,316.140442 260.003235,313.203705 260.001892,308.234772 
	C259.996887,289.742157 260.138489,271.248016 259.933990,252.757645 
	C259.848114,244.995499 257.181641,238.104187 251.224335,232.686401 
	C242.124191,224.410339 228.563141,224.368469 219.486298,232.949310 
	C219.187668,233.164993 219.231583,233.065598 219.231583,233.065598 
	C213.977051,237.684769 210.915863,243.242020 210.960327,250.483078 
	C211.077957,269.638306 211.012543,288.794739 210.992172,307.950714 
	C210.986557,313.233063 208.410492,315.808594 203.350433,314.818817 
	C201.692932,314.494568 199.206345,312.111816 199.188705,310.645325 
	C198.922272,288.494263 198.548355,266.322998 199.324051,244.195892 
	C199.519104,238.631531 203.660675,233.205521 206.004730,227.352020 
	C206.020889,226.988113 205.974335,227.034912 205.953461,227.060486 
z"/>
<path fill="#C2F900" opacity="1.000000" stroke="none" 
	d="
M219.579514,233.420441 
	C219.231583,233.065598 219.187668,233.164993 219.158386,233.165649 
	C220.402878,232.932419 221.867874,233.026154 222.919815,232.412186 
	C230.596786,227.931793 238.449295,227.432251 246.177826,231.808136 
	C253.813461,236.131409 257.184235,242.860550 257.085022,251.822708 
	C256.830597,274.803162 257.001160,297.788300 256.999268,320.771576 
	C256.998810,326.265961 254.882614,329.092072 250.861801,328.987335 
	C246.979645,328.886230 245.001862,326.199921 245.001144,320.994812 
	C244.998062,298.677734 245.000916,276.360626 244.997162,254.043533 
	C244.996933,252.712433 245.165543,251.338272 244.899887,250.057953 
	C243.936035,245.412399 238.123428,240.501328 234.550110,241.165619 
	C229.593842,242.086990 225.477737,247.813004 225.530090,253.057343 
	C225.759308,276.006195 225.876602,298.956329 225.977524,321.906219 
	C225.993057,325.438354 222.443405,329.252258 219.162247,328.906677 
	C215.223633,328.491821 213.938248,325.788788 213.952759,321.923187 
	C214.045242,297.274841 213.690353,272.618652 214.267807,247.983475 
	C214.379807,243.205811 217.951584,238.509262 219.579514,233.420441 
z"/>
<path fill="#C2F900" opacity="1.000000" stroke="none" 
	d="
M229.000000,293.998413 
	C229.000137,281.691345 228.796295,269.877350 229.172562,258.081818 
	C229.247833,255.722382 231.018448,252.445526 232.966827,251.426849 
	C234.506409,250.621902 237.690918,252.330872 239.792938,253.536850 
	C240.666611,254.038116 240.945358,256.133057 240.951218,257.505646 
	C241.025238,274.800812 240.959610,292.096649 241.031967,309.391846 
	C241.047470,313.092987 239.508591,315.927826 235.897171,315.805084 
	C232.427612,315.687225 229.187195,313.713257 229.041779,309.463867 
	C228.871262,304.480621 229.000671,299.487061 229.000000,293.998413 
z"/>
<path fill="#FFFFFF" opacity="1.000000" stroke="none" 
	d="
M228.999863,97.000000 
	C228.999863,111.132011 228.999863,124.764030 228.999863,138.396042 
	C228.534073,138.496277 228.068298,138.596527 227.602509,138.696762 
	C227.068405,136.373413 226.087753,134.053253 226.071106,131.726212 
	C225.942429,113.729164 226.009384,95.730782 225.991943,77.732834 
	C225.988647,74.337296 225.996414,70.934769 225.791702,67.548004 
	C225.473709,62.287220 229.295990,57.434204 234.278046,57.003860 
	C238.896088,56.604965 244.835663,61.175896 244.911194,65.894501 
	C245.135162,79.889328 245.039215,93.890381 244.920242,107.887733 
	C244.909485,109.154007 243.831543,110.411209 242.076279,111.539070 
	C241.717575,108.994156 241.078506,106.452454 241.049316,103.903763 
	C240.931000,93.572960 240.921936,83.239098 241.041046,72.908310 
	C241.084854,69.108063 239.995972,66.903137 235.736130,66.953804 
	C231.564346,67.003433 229.060486,68.652596 229.020538,73.002838 
	C228.948624,80.834633 229.000000,88.667549 228.999863,97.000000 
z"/>
<path fill="#FFFFFF" opacity="1.000000" stroke="none" 
	d="
M267.021240,47.114426 
	C261.412720,38.574455 254.028931,33.005375 244.315186,30.757811 
	C220.090195,25.152632 199.149124,42.032566 199.003662,63.570774 
	C198.977020,67.514626 198.999863,71.458809 198.043854,75.747108 
	C197.363770,74.442459 196.216248,73.186874 196.073380,71.825836 
	C193.749390,49.685169 208.413361,30.913059 229.282501,27.287170 
	C248.922180,23.874899 267.714447,36.998604 273.068970,56.163345 
	C276.539764,68.585907 274.299530,81.174110 274.912109,93.672012 
	C274.947235,94.388550 273.817108,95.162201 273.229309,95.909279 
	C272.820068,94.980042 272.064728,94.054276 272.055359,93.121017 
	C271.965149,84.134834 271.986023,75.147354 272.004913,66.160309 
	C272.018921,59.494354 270.671143,53.197845 267.021240,47.114426 
z"/>
<path fill="#FFFFFF" opacity="1.000000" stroke="none" 
	d="
M167.996735,107.448982 
	C170.497757,114.916786 169.281204,124.405991 165.000076,127.782799 
	C165.000076,123.839645 165.027328,120.289963 164.992935,116.740883 
	C164.953125,112.632469 162.451126,109.669548 158.898682,110.085526 
	C155.074158,110.533356 152.704178,112.504341 152.935150,116.963844 
	C153.209991,122.270386 153.222168,127.615685 152.896927,132.916504 
	C152.754913,135.231033 151.491608,137.476746 150.737503,139.753708 
	C150.187317,139.635025 149.637131,139.516342 149.086945,139.397644 
	C149.086945,129.581100 148.519363,119.712471 149.412521,109.977875 
	C149.702591,106.816414 153.233444,102.683319 156.308441,101.334190 
	C161.324844,99.133270 165.305588,102.541664 167.996735,107.448982 
z"/>
<path fill="#FFFFFF" opacity="1.000000" stroke="none" 
	d="
M213.999863,95.000000 
	C213.999863,105.916809 213.999863,116.333618 213.999863,126.750427 
	C213.474335,126.864952 212.948807,126.979485 212.423294,127.094017 
	C211.949142,125.661575 211.068878,124.231049 211.062164,122.796410 
	C210.970840,103.313896 210.618500,83.820175 211.161072,64.352356 
	C211.434113,54.556129 217.589462,47.478481 226.224915,43.572254 
	C233.192764,40.420364 240.629929,41.453144 247.475021,45.183205 
	C248.795715,45.902878 250.095215,46.661385 251.404495,47.401985 
	C250.973083,47.909351 250.541687,48.416718 250.110291,48.924084 
	C247.512573,47.861649 244.944565,46.718460 242.312149,45.750404 
	C229.116211,40.897728 217.342255,49.596939 214.762161,58.743088 
	C214.326736,60.286617 214.042679,61.928661 214.032745,63.527332 
	C213.968536,73.851219 213.999863,84.175705 213.999863,95.000000 
z"/>
<path fill="#FFFFFF" opacity="1.000000" stroke="none" 
	d="
M206.841156,137.967987 
	C218.440735,144.668655 226.296402,153.890671 228.419769,167.028137 
	C229.232239,172.054886 228.910919,177.275101 228.981583,182.408859 
	C229.061096,188.185776 228.999863,193.964615 228.999863,199.742615 
	C228.438126,199.858246 227.876404,199.973877 227.314667,200.089508 
	C226.876602,198.516388 226.086380,196.949142 226.059998,195.369156 
	C225.929291,187.542816 225.607941,179.689392 226.079041,171.889328 
	C227.175613,153.733292 209.232437,136.391937 191.229950,136.753433 
	C180.080444,136.977341 170.716507,139.922485 162.485611,147.880768 
	C163.730560,136.306274 189.059311,130.907837 206.841156,137.967987 
z"/>
<path fill="#FFFFFF" opacity="1.000000" stroke="none" 
	d="
M193.015015,91.052307 
	C198.975815,99.544441 201.169937,118.591469 195.855804,122.235771 
	C197.139587,104.898842 195.139694,88.742043 179.057312,79.163750 
	C163.702118,70.018578 148.265274,71.838226 133.673904,82.164436 
	C147.044678,65.306976 178.640945,66.455696 193.015015,91.052307 
z"/>
<path fill="#FFFFFF" opacity="1.000000" stroke="none" 
	d="
M241.000137,180.998520 
	C241.000183,169.680023 240.727463,158.851578 241.103699,148.045731 
	C241.325424,141.677933 242.354050,135.279510 245.816559,129.730927 
	C246.238358,129.828995 246.660141,129.927063 247.081940,130.025131 
	C246.313492,133.867508 245.517303,137.704620 244.789078,141.554611 
	C244.456863,143.311050 244.040543,145.092056 244.033981,146.863297 
	C243.975418,162.675385 243.999832,178.487778 243.999832,194.300079 
	C243.999832,196.106598 243.999847,197.913116 243.999847,199.719635 
	C243.459335,199.774414 242.918823,199.829178 242.378311,199.883942 
	C239.357925,194.119751 241.756561,187.584427 241.000137,180.998520 
z"/>
<path fill="#FFFFFF" opacity="1.000000" stroke="none" 
	d="
M257.000061,67.160568 
	C255.983978,61.742561 254.967896,56.802303 254.064484,52.409878 
	C260.429810,56.395088 263.586853,95.719421 257.000061,100.584198 
	C257.000061,89.483986 257.000061,78.561157 257.000061,67.160568 
z"/>
<path fill="#FFFFFF" opacity="1.000000" stroke="none" 
	d="
M142.531448,93.505081 
	C151.485107,82.356010 166.970062,83.418167 175.064713,93.470680 
	C163.821259,87.632454 153.571320,86.176598 143.434921,94.036201 
	C142.950424,93.955093 142.823441,93.833176 142.531448,93.505081 
z"/>
<path fill="#FFFFFF" opacity="1.000000" stroke="none" 
	d="
M182.997253,106.231903 
	C183.446320,111.677742 183.890762,116.692398 184.335220,121.707062 
	C183.695465,121.873924 183.055710,122.040794 182.415955,122.207657 
	C181.944397,121.096092 181.165131,120.014076 181.055023,118.867790 
	C180.600250,114.132843 180.880005,109.260300 179.859833,104.667084 
	C178.983398,100.721016 176.707108,97.085861 174.651993,92.407608 
	C180.114517,95.845116 181.462585,100.882927 182.997253,106.231903 
z"/>
<path fill="#FFFFFF" opacity="1.000000" stroke="none" 
	d="
M251.309845,125.162338 
	C249.915817,126.771828 248.794266,128.103989 247.672714,129.436157 
	C247.306458,129.175980 246.940216,128.915802 246.573959,128.655624 
	C247.980530,126.555771 249.387085,124.455925 250.793655,122.356071 
	C251.104370,122.495354 251.415070,122.634636 251.725784,122.773911 
	C251.677963,123.477615 251.630142,124.181320 251.309845,125.162338 
z"/>
<path fill="#FFFFFF" opacity="1.000000" stroke="none" 
	d="
M255.248596,118.073189 
	C254.855240,119.606194 254.055557,121.143326 253.255859,122.680450 
	C252.760666,122.338905 252.265472,121.997353 251.770264,121.655807 
	C252.794266,120.462975 253.818253,119.270142 255.248596,118.073189 
z"/>
</svg>